# MagicaVoxel @ Ephtracy

# group
o 

# material
mtllib ChanyongAngel.mtl
usemtl palette

# normals
vn -1 0 0
vn 1 0 0
vn 0 0 1
vn 0 0 -1
vn 0 -1 0
vn 0 1 0

# texcoords
vt 0.0214844 0.5
vt 0.0566406 0.5
vt 0.0722656 0.5
vt 0.119141 0.5
vt 0.994141 0.5

# verts
v -1 1.7 1.6
v -1 1.7 -0.2
v -1 2.2 1.6
v -1 2.2 -0.2
v -1 3.9 0.6
v -1 3.9 -0.5
v -1 4 0.6
v -1 4 -0.5
v -0.9 2.4 1
v -0.9 2.4 -0.6
v -0.9 3.6 1
v -0.9 3.6 -0.6
v -0.9 3.9 0.8
v -0.9 3.9 0.6
v -0.9 3.9 -0.5
v -0.9 3.9 -0.6
v -0.9 4 0.8
v -0.9 4 0.6
v -0.9 4 -0.5
v -0.9 4 -0.6
v -0.8 3.9 0.9
v -0.8 3.9 0.8
v -0.8 3.9 -0.6
v -0.8 3.9 -0.7
v -0.8 4 0.9
v -0.8 4 0.8
v -0.8 4 -0.6
v -0.8 4 -0.7
v -0.7 3.3 1.1
v -0.7 3.3 1
v -0.7 3.4 1.1
v -0.7 3.4 1
v -0.7 3.9 1
v -0.7 3.9 0.9
v -0.7 4 1
v -0.7 4 0.9
v -0.6 0.8 0.7
v -0.6 0.8 -0.5
v -0.6 0.9 0.8
v -0.6 0.9 0.7
v -0.6 1 1
v -0.6 1 0.8
v -0.6 1.7 1
v -0.6 1.7 -0.2
v -0.6 2.2 0.7
v -0.6 2.2 -0.2
v -0.6 2.4 0.7
v -0.6 2.4 -0.5
v -0.6 3.9 1.1
v -0.6 3.9 1
v -0.6 3.9 -0.7
v -0.6 3.9 -0.8
v -0.6 4 1.1
v -0.6 4 1
v -0.6 4 -0.7
v -0.6 4 -0.8
v -0.5 3.2 1.1
v -0.5 3.2 1
v -0.5 3.3 1.1
v -0.5 3.3 1
v -0.4 0.1 0.3
v -0.4 0.1 -0.1
v -0.4 0.8 0.3
v -0.4 0.8 -0.1
v -0.4 1.7 1.1
v -0.4 1.7 1
v -0.4 1.8 1.1
v -0.4 1.8 1
v -0.4 2.8 1.2
v -0.4 2.8 1
v -0.4 3 1.2
v -0.4 3 1
v -0.3 2.7 1.2
v -0.3 2.7 1
v -0.3 2.8 1.2
v -0.3 2.8 1
v -0.3 3 1.2
v -0.3 3 1
v -0.3 3.1 1.2
v -0.3 3.1 1
v -0.0999999 2.8 1.2
v -0.0999999 2.8 1
v -0.0999999 3 1.2
v -0.0999999 3 1
v 0.1 0.1 -0.3
v 0.1 0.1 -0.4
v 0.1 0.2 0
v 0.1 0.2 -0.3
v 0.1 0.3 0.1
v 0.1 0.3 0
v 0.1 0.4 -0.3
v 0.1 0.4 -0.4
v 0.1 0.5 0.2
v 0.1 0.5 0.1
v 0.1 0.5 -0.2
v 0.1 0.5 -0.3
v 0.1 0.7 0.3
v 0.1 0.7 0.2
v 0.1 0.8 0.3
v 0.1 0.8 -0.2
v 0.1 3.3 1.1
v 0.1 3.3 1
v 0.1 3.4 1.1
v 0.1 3.4 1
v 0.2 2.8 1.2
v 0.2 2.8 1
v 0.2 3 1.2
v 0.2 3 1
v 0.3 1.7 1.1
v 0.3 1.7 1
v 0.3 1.8 1.1
v 0.3 1.8 1
v 0.4 3.2 1.1
v 0.4 3.2 1
v 0.4 3.3 1.1
v 0.4 3.3 1
v 0.5 3.9 -0.6
v 0.5 3.9 -0.7
v 0.5 4 -0.6
v 0.5 4 -0.7
v 0.6 1.9 1
v 0.6 1.9 0.9
v 0.6 2 0.9
v 0.6 2 0.8
v 0.6 2.2 1
v 0.6 2.2 0.8
v 0.6 3.9 1
v 0.6 3.9 0.9
v 0.6 4 1
v 0.6 4 0.9
v 0.7 3.9 0.9
v 0.7 3.9 0.7
v 0.7 3.9 -0.5
v 0.7 3.9 -0.6
v 0.7 4 0.9
v 0.7 4 0.7
v 0.7 4 -0.5
v 0.7 4 -0.6
v 0.8 3.9 0.7
v 0.8 3.9 0.5
v 0.8 3.9 -0.4
v 0.8 3.9 -0.5
v 0.8 4 0.7
v 0.8 4 0.5
v 0.8 4 -0.4
v 0.8 4 -0.5
v 0.9 3.9 0.5
v 0.9 3.9 -0.4
v 0.9 4 0.5
v 0.9 4 -0.4
v -0.9 3.9 0.5
v -0.9 3.9 -0.4
v -0.9 4 0.5
v -0.9 4 -0.4
v -0.8 3.9 0.7
v -0.8 3.9 0.5
v -0.8 3.9 -0.4
v -0.8 3.9 -0.5
v -0.8 4 0.7
v -0.8 4 0.5
v -0.8 4 -0.4
v -0.8 4 -0.5
v -0.7 3.9 0.9
v -0.7 3.9 0.7
v -0.7 3.9 -0.5
v -0.7 3.9 -0.6
v -0.7 4 0.9
v -0.7 4 0.7
v -0.7 4 -0.5
v -0.7 4 -0.6
v -0.6 1.7 1.6
v -0.6 1.7 1
v -0.6 1.9 1
v -0.6 1.9 0.9
v -0.6 2 0.9
v -0.6 2 0.8
v -0.6 2.2 1.6
v -0.6 2.2 0.8
v -0.6 3.9 1
v -0.6 3.9 0.9
v -0.6 4 1
v -0.6 4 0.9
v -0.5 3.9 -0.6
v -0.5 3.9 -0.7
v -0.5 4 -0.6
v -0.5 4 -0.7
v -0.4 3.2 1.1
v -0.4 3.2 1
v -0.4 3.3 1.1
v -0.4 3.3 1
v -0.3 1.7 1.1
v -0.3 1.7 1
v -0.3 1.8 1.1
v -0.3 1.8 1
v -0.2 2.8 1.2
v -0.2 2.8 1
v -0.2 3 1.2
v -0.2 3 1
v -0.0999999 0.1 0.3
v -0.0999999 0.1 -0.1
v -0.0999999 0.8 0.3
v -0.0999999 0.8 -0.1
v -0.0999999 3.3 1.1
v -0.0999999 3.3 1
v -0.0999999 3.4 1.1
v -0.0999999 3.4 1
v 0.1 2.8 1.2
v 0.1 2.8 1
v 0.1 3 1.2
v 0.1 3 1
v 0.3 2.7 1.2
v 0.3 2.7 1
v 0.3 2.8 1.2
v 0.3 2.8 1
v 0.3 3 1.2
v 0.3 3 1
v 0.3 3.1 1.2
v 0.3 3.1 1
v 0.4 0.1 -0.3
v 0.4 0.1 -0.4
v 0.4 0.2 0
v 0.4 0.2 -0.3
v 0.4 0.3 0.1
v 0.4 0.3 0
v 0.4 0.4 -0.3
v 0.4 0.4 -0.4
v 0.4 0.5 0.2
v 0.4 0.5 0.1
v 0.4 0.5 -0.2
v 0.4 0.5 -0.3
v 0.4 0.7 0.3
v 0.4 0.7 0.2
v 0.4 0.8 0.3
v 0.4 0.8 -0.2
v 0.4 1.7 1.1
v 0.4 1.7 1
v 0.4 1.8 1.1
v 0.4 1.8 1
v 0.4 2.8 1.2
v 0.4 2.8 1
v 0.4 3 1.2
v 0.4 3 1
v 0.5 3.2 1.1
v 0.5 3.2 1
v 0.5 3.3 1.1
v 0.5 3.3 1
v 0.6 0.8 0.7
v 0.6 0.8 -0.5
v 0.6 0.9 0.8
v 0.6 0.9 0.7
v 0.6 1 1
v 0.6 1 0.8
v 0.6 1.8 1
v 0.6 1.8 -0.2
v 0.6 2.2 0.7
v 0.6 2.2 -0.2
v 0.6 2.4 0.7
v 0.6 2.4 -0.5
v 0.6 3.9 1.1
v 0.6 3.9 1
v 0.6 3.9 -0.7
v 0.6 3.9 -0.8
v 0.6 4 1.1
v 0.6 4 1
v 0.6 4 -0.7
v 0.6 4 -0.8
v 0.7 3.3 1.1
v 0.7 3.3 1
v 0.7 3.4 1.1
v 0.7 3.4 1
v 0.7 3.9 1
v 0.7 3.9 0.9
v 0.7 4 1
v 0.7 4 0.9
v 0.8 3.9 0.9
v 0.8 3.9 0.8
v 0.8 3.9 -0.6
v 0.8 3.9 -0.7
v 0.8 4 0.9
v 0.8 4 0.8
v 0.8 4 -0.6
v 0.8 4 -0.7
v 0.9 2.4 1
v 0.9 2.4 -0.6
v 0.9 3.6 1
v 0.9 3.6 -0.6
v 0.9 3.9 0.8
v 0.9 3.9 0.6
v 0.9 3.9 -0.5
v 0.9 3.9 -0.6
v 0.9 4 0.8
v 0.9 4 0.6
v 0.9 4 -0.5
v 0.9 4 -0.6
v 1 1.8 1
v 1 1.8 -0.2
v 1 2.2 1
v 1 2.2 -0.2
v 1 3.9 0.6
v 1 3.9 -0.5
v 1 4 0.6
v 1 4 -0.5
v -1 1.7 1.6
v -1 2.2 1.6
v -0.6 1.7 1.6
v -0.6 2.2 1.6
v -0.4 2.8 1.2
v -0.4 3 1.2
v -0.3 2.7 1.2
v -0.3 2.8 1.2
v -0.3 3 1.2
v -0.3 3.1 1.2
v -0.2 2.8 1.2
v -0.2 3 1.2
v -0.0999999 2.8 1.2
v -0.0999999 3 1.2
v 0.1 2.8 1.2
v 0.1 3 1.2
v 0.2 2.8 1.2
v 0.2 3 1.2
v 0.3 2.7 1.2
v 0.3 2.8 1.2
v 0.3 3 1.2
v 0.3 3.1 1.2
v 0.4 2.8 1.2
v 0.4 3 1.2
v -0.7 3.3 1.1
v -0.7 3.4 1.1
v -0.6 3.9 1.1
v -0.6 4 1.1
v -0.5 3.2 1.1
v -0.5 3.3 1.1
v -0.4 1.7 1.1
v -0.4 1.8 1.1
v -0.4 3.2 1.1
v -0.4 3.3 1.1
v -0.3 1.7 1.1
v -0.3 1.8 1.1
v -0.0999999 3.3 1.1
v -0.0999999 3.4 1.1
v 0.1 3.3 1.1
v 0.1 3.4 1.1
v 0.3 1.7 1.1
v 0.3 1.8 1.1
v 0.4 1.7 1.1
v 0.4 1.8 1.1
v 0.4 3.2 1.1
v 0.4 3.3 1.1
v 0.5 3.2 1.1
v 0.5 3.3 1.1
v 0.6 3.9 1.1
v 0.6 4 1.1
v 0.7 3.3 1.1
v 0.7 3.4 1.1
v -0.9 2.4 1
v -0.9 3.6 1
v -0.7 3.3 1
v -0.7 3.4 1
v -0.7 3.9 1
v -0.7 4 1
v -0.6 1 1
v -0.6 1.7 1
v -0.6 1.9 1
v -0.6 3.9 1
v -0.6 4 1
v -0.5 3.2 1
v -0.5 3.3 1
v -0.4 1.7 1
v -0.4 1.8 1
v -0.4 2.8 1
v -0.4 3 1
v -0.4 3.2 1
v -0.4 3.3 1
v -0.3 1.7 1
v -0.3 1.8 1
v -0.3 2.7 1
v -0.3 2.8 1
v -0.3 3 1
v -0.3 3.1 1
v -0.2 1.2 1
v -0.2 1.4 1
v -0.2 2.8 1
v -0.2 3 1
v -0.0999999 1.4 1
v -0.0999999 1.5 1
v -0.0999999 2.8 1
v -0.0999999 3 1
v -0.0999999 3.3 1
v -0.0999999 3.4 1
v 0.1 1.4 1
v 0.1 1.5 1
v 0.1 2.8 1
v 0.1 3 1
v 0.1 3.3 1
v 0.1 3.4 1
v 0.2 1.2 1
v 0.2 1.4 1
v 0.2 2.8 1
v 0.2 3 1
v 0.3 1.7 1
v 0.3 1.8 1
v 0.3 2.7 1
v 0.3 2.8 1
v 0.3 3 1
v 0.3 3.1 1
v 0.4 1.7 1
v 0.4 1.8 1
v 0.4 2.8 1
v 0.4 3 1
v 0.4 3.2 1
v 0.4 3.3 1
v 0.5 3.2 1
v 0.5 3.3 1
v 0.6 1 1
v 0.6 1.8 1
v 0.6 1.9 1
v 0.6 2.2 1
v 0.6 3.9 1
v 0.6 4 1
v 0.7 3.3 1
v 0.7 3.4 1
v 0.7 3.9 1
v 0.7 4 1
v 0.9 2.4 1
v 0.9 3.6 1
v 1 1.8 1
v 1 2.2 1
v -0.8 3.9 0.9
v -0.8 4 0.9
v -0.7 3.9 0.9
v -0.7 4 0.9
v -0.6 1.9 0.9
v -0.6 2 0.9
v 0.6 1.9 0.9
v 0.6 2 0.9
v 0.7 3.9 0.9
v 0.7 4 0.9
v 0.8 3.9 0.9
v 0.8 4 0.9
v -0.9 3.9 0.8
v -0.9 4 0.8
v -0.8 3.9 0.8
v -0.8 4 0.8
v -0.6 0.9 0.8
v -0.6 1 0.8
v -0.6 2 0.8
v -0.6 2.2 0.8
v 0.6 0.9 0.8
v 0.6 1 0.8
v 0.6 2 0.8
v 0.6 2.2 0.8
v 0.8 3.9 0.8
v 0.8 4 0.8
v 0.9 3.9 0.8
v 0.9 4 0.8
v -0.6 0.8 0.7
v -0.6 0.9 0.7
v -0.6 2.2 0.7
v -0.6 2.4 0.7
v 0.6 0.8 0.7
v 0.6 0.9 0.7
v 0.6 2.2 0.7
v 0.6 2.4 0.7
v -1 3.9 0.6
v -1 4 0.6
v -0.9 3.9 0.6
v -0.9 4 0.6
v 0.9 3.9 0.6
v 0.9 4 0.6
v 1 3.9 0.6
v 1 4 0.6
v -0.4 0.1 0.3
v -0.4 0.8 0.3
v -0.0999999 0.1 0.3
v -0.0999999 0.8 0.3
v 0.1 0.7 0.3
v 0.1 0.8 0.3
v 0.4 0.7 0.3
v 0.4 0.8 0.3
v 0.1 0.5 0.2
v 0.1 0.7 0.2
v 0.4 0.5 0.2
v 0.4 0.7 0.2
v 0.1 0.3 0.1
v 0.1 0.5 0.1
v 0.4 0.3 0.1
v 0.4 0.5 0.1
v 0.1 0.2 0
v 0.1 0.3 0
v 0.4 0.2 0
v 0.4 0.3 0
v 0.1 0.1 -0.3
v 0.1 0.2 -0.3
v 0.4 0.1 -0.3
v 0.4 0.2 -0.3
v -0.9 3.9 -0.4
v -0.9 4 -0.4
v -0.8 3.9 -0.4
v -0.8 4 -0.4
v 0.8 3.9 -0.4
v 0.8 4 -0.4
v 0.9 3.9 -0.4
v 0.9 4 -0.4
v -0.8 3.9 -0.5
v -0.8 4 -0.5
v -0.7 3.9 -0.5
v -0.7 4 -0.5
v 0.7 3.9 -0.5
v 0.7 4 -0.5
v 0.8 3.9 -0.5
v 0.8 4 -0.5
v -0.7 3.9 -0.6
v -0.7 4 -0.6
v -0.5 3.9 -0.6
v -0.5 4 -0.6
v 0.5 3.9 -0.6
v 0.5 4 -0.6
v 0.7 3.9 -0.6
v 0.7 4 -0.6
v -0.5 3.9 -0.7
v -0.5 4 -0.7
v 0.5 3.9 -0.7
v 0.5 4 -0.7
v -0.6 3.9 1
v -0.6 4 1
v 0.6 3.9 1
v 0.6 4 1
v -0.7 3.9 0.9
v -0.7 4 0.9
v -0.6 3.9 0.9
v -0.6 4 0.9
v 0.6 3.9 0.9
v 0.6 4 0.9
v 0.7 3.9 0.9
v 0.7 4 0.9
v -0.8 3.9 0.7
v -0.8 4 0.7
v -0.7 3.9 0.7
v -0.7 4 0.7
v 0.7 3.9 0.7
v 0.7 4 0.7
v 0.8 3.9 0.7
v 0.8 4 0.7
v -0.9 3.9 0.5
v -0.9 4 0.5
v -0.8 3.9 0.5
v -0.8 4 0.5
v 0.8 3.9 0.5
v 0.8 4 0.5
v 0.9 3.9 0.5
v 0.9 4 0.5
v -0.4 0.1 -0.1
v -0.4 0.8 -0.1
v -0.0999999 0.1 -0.1
v -0.0999999 0.8 -0.1
v -1 1.7 -0.2
v -1 2.2 -0.2
v -0.6 1.7 -0.2
v -0.6 2.2 -0.2
v 0.1 0.5 -0.2
v 0.1 0.8 -0.2
v 0.4 0.5 -0.2
v 0.4 0.8 -0.2
v 0.6 1.8 -0.2
v 0.6 2.2 -0.2
v 1 1.8 -0.2
v 1 2.2 -0.2
v 0.1 0.4 -0.3
v 0.1 0.5 -0.3
v 0.4 0.4 -0.3
v 0.4 0.5 -0.3
v 0.1 0.1 -0.4
v 0.1 0.4 -0.4
v 0.4 0.1 -0.4
v 0.4 0.4 -0.4
v -1 3.9 -0.5
v -1 4 -0.5
v -0.9 3.9 -0.5
v -0.9 4 -0.5
v -0.6 0.8 -0.5
v -0.6 2.4 -0.5
v 0.6 0.8 -0.5
v 0.6 2.4 -0.5
v 0.9 3.9 -0.5
v 0.9 4 -0.5
v 1 3.9 -0.5
v 1 4 -0.5
v -0.9 2.4 -0.6
v -0.9 3.6 -0.6
v -0.9 3.9 -0.6
v -0.9 4 -0.6
v -0.8 3.9 -0.6
v -0.8 4 -0.6
v 0.8 3.9 -0.6
v 0.8 4 -0.6
v 0.9 2.4 -0.6
v 0.9 3.6 -0.6
v 0.9 3.9 -0.6
v 0.9 4 -0.6
v -0.8 3.9 -0.7
v -0.8 4 -0.7
v -0.6 3.9 -0.7
v -0.6 4 -0.7
v 0.6 3.9 -0.7
v 0.6 4 -0.7
v 0.8 3.9 -0.7
v 0.8 4 -0.7
v -0.6 3.9 -0.8
v -0.6 4 -0.8
v 0.6 3.9 -0.8
v 0.6 4 -0.8
v -0.4 0.1 0.3
v -0.0999999 0.1 0.3
v -0.4 0.1 -0.1
v -0.0999999 0.1 -0.1
v 0.1 0.1 -0.3
v 0.4 0.1 -0.3
v 0.1 0.1 -0.4
v 0.4 0.1 -0.4
v 0.1 0.2 0
v 0.4 0.2 0
v 0.1 0.2 -0.3
v 0.4 0.2 -0.3
v 0.1 0.3 0.1
v 0.4 0.3 0.1
v 0.1 0.3 0
v 0.4 0.3 0
v 0.1 0.5 0.2
v 0.4 0.5 0.2
v 0.1 0.5 0.1
v 0.4 0.5 0.1
v 0.1 0.7 0.3
v 0.4 0.7 0.3
v 0.1 0.7 0.2
v 0.4 0.7 0.2
v -0.6 0.8 0.7
v 0.6 0.8 0.7
v -0.4 0.8 0.3
v -0.0999999 0.8 0.3
v 0.1 0.8 0.3
v 0.4 0.8 0.3
v -0.4 0.8 -0.1
v -0.0999999 0.8 -0.1
v 0.1 0.8 -0.2
v 0.4 0.8 -0.2
v -0.6 0.8 -0.5
v 0.6 0.8 -0.5
v -0.6 0.9 0.8
v 0.6 0.9 0.8
v -0.6 0.9 0.7
v 0.6 0.9 0.7
v -0.6 1 1
v 0.6 1 1
v -0.6 1 0.8
v 0.6 1 0.8
v -1 1.7 1.6
v -0.6 1.7 1.6
v -0.4 1.7 1.1
v -0.3 1.7 1.1
v 0.3 1.7 1.1
v 0.4 1.7 1.1
v -0.6 1.7 1
v -0.4 1.7 1
v -0.3 1.7 1
v 0.3 1.7 1
v 0.4 1.7 1
v -1 1.7 -0.2
v -0.6 1.7 -0.2
v 0.6 1.8 1
v 1 1.8 1
v 0.6 1.8 -0.2
v 1 1.8 -0.2
v -0.9 2.4 1
v 0.9 2.4 1
v -0.6 2.4 0.7
v 0.6 2.4 0.7
v -0.6 2.4 -0.5
v 0.6 2.4 -0.5
v -0.9 2.4 -0.6
v 0.9 2.4 -0.6
v -0.3 2.7 1.2
v 0.3 2.7 1.2
v -0.3 2.7 1
v 0.3 2.7 1
v -0.4 2.8 1.2
v -0.3 2.8 1.2
v 0.3 2.8 1.2
v 0.4 2.8 1.2
v -0.4 2.8 1
v -0.3 2.8 1
v 0.3 2.8 1
v 0.4 2.8 1
v -0.2 3 1.2
v -0.0999999 3 1.2
v 0.1 3 1.2
v 0.2 3 1.2
v -0.2 3 1
v -0.0999999 3 1
v 0.1 3 1
v 0.2 3 1
v -0.5 3.2 1.1
v -0.4 3.2 1.1
v 0.4 3.2 1.1
v 0.5 3.2 1.1
v -0.5 3.2 1
v -0.4 3.2 1
v 0.4 3.2 1
v 0.5 3.2 1
v -0.7 3.3 1.1
v -0.5 3.3 1.1
v -0.4 3.3 1.1
v -0.0999999 3.3 1.1
v 0.1 3.3 1.1
v 0.4 3.3 1.1
v 0.5 3.3 1.1
v 0.7 3.3 1.1
v -0.7 3.3 1
v -0.5 3.3 1
v -0.4 3.3 1
v -0.0999999 3.3 1
v 0.1 3.3 1
v 0.4 3.3 1
v 0.5 3.3 1
v 0.7 3.3 1
v -0.6 3.9 1.1
v 0.6 3.9 1.1
v -0.7 3.9 1
v -0.6 3.9 1
v 0.6 3.9 1
v 0.7 3.9 1
v -0.8 3.9 0.9
v -0.7 3.9 0.9
v -0.6 3.9 0.9
v 0.6 3.9 0.9
v 0.7 3.9 0.9
v 0.8 3.9 0.9
v -0.9 3.9 0.8
v -0.8 3.9 0.8
v 0.8 3.9 0.8
v 0.9 3.9 0.8
v -0.8 3.9 0.7
v -0.7 3.9 0.7
v 0.7 3.9 0.7
v 0.8 3.9 0.7
v -1 3.9 0.6
v -0.9 3.9 0.6
v 0.9 3.9 0.6
v 1 3.9 0.6
v -0.9 3.9 0.5
v -0.8 3.9 0.5
v 0.8 3.9 0.5
v 0.9 3.9 0.5
v -0.9 3.9 -0.4
v -0.8 3.9 -0.4
v 0.8 3.9 -0.4
v 0.9 3.9 -0.4
v -1 3.9 -0.5
v -0.9 3.9 -0.5
v -0.8 3.9 -0.5
v -0.7 3.9 -0.5
v 0.7 3.9 -0.5
v 0.8 3.9 -0.5
v 0.9 3.9 -0.5
v 1 3.9 -0.5
v -0.9 3.9 -0.6
v -0.8 3.9 -0.6
v -0.7 3.9 -0.6
v -0.5 3.9 -0.6
v 0.5 3.9 -0.6
v 0.7 3.9 -0.6
v 0.8 3.9 -0.6
v 0.9 3.9 -0.6
v -0.8 3.9 -0.7
v -0.6 3.9 -0.7
v -0.5 3.9 -0.7
v 0.5 3.9 -0.7
v 0.6 3.9 -0.7
v 0.8 3.9 -0.7
v -0.6 3.9 -0.8
v 0.6 3.9 -0.8
v 0.1 0.4 -0.3
v 0.4 0.4 -0.3
v 0.1 0.4 -0.4
v 0.4 0.4 -0.4
v 0.1 0.5 -0.2
v 0.4 0.5 -0.2
v 0.1 0.5 -0.3
v 0.4 0.5 -0.3
v -0.4 1.8 1.1
v -0.3 1.8 1.1
v 0.3 1.8 1.1
v 0.4 1.8 1.1
v -0.4 1.8 1
v -0.3 1.8 1
v 0.3 1.8 1
v 0.4 1.8 1
v -0.6 1.9 1
v 0.6 1.9 1
v -0.6 1.9 0.9
v 0.6 1.9 0.9
v -0.6 2 0.9
v 0.6 2 0.9
v -0.6 2 0.8
v 0.6 2 0.8
v -1 2.2 1.6
v -0.6 2.2 1.6
v 0.6 2.2 1
v 1 2.2 1
v -0.6 2.2 0.8
v 0.6 2.2 0.8
v -0.6 2.2 0.7
v 0.6 2.2 0.7
v -1 2.2 -0.2
v -0.6 2.2 -0.2
v 0.6 2.2 -0.2
v 1 2.2 -0.2
v -0.2 2.8 1.2
v -0.0999999 2.8 1.2
v 0.1 2.8 1.2
v 0.2 2.8 1.2
v -0.2 2.8 1
v -0.0999999 2.8 1
v 0.1 2.8 1
v 0.2 2.8 1
v -0.4 3 1.2
v -0.3 3 1.2
v 0.3 3 1.2
v 0.4 3 1.2
v -0.4 3 1
v -0.3 3 1
v 0.3 3 1
v 0.4 3 1
v -0.3 3.1 1.2
v 0.3 3.1 1.2
v -0.3 3.1 1
v 0.3 3.1 1
v -0.7 3.4 1.1
v -0.0999999 3.4 1.1
v 0.1 3.4 1.1
v 0.7 3.4 1.1
v -0.7 3.4 1
v -0.0999999 3.4 1
v 0.1 3.4 1
v 0.7 3.4 1
v -0.9 3.6 1
v 0.9 3.6 1
v -0.9 3.6 -0.6
v 0.9 3.6 -0.6
v -0.6 4 1.1
v 0.6 4 1.1
v -0.7 4 1
v -0.6 4 1
v 0.6 4 1
v 0.7 4 1
v -0.8 4 0.9
v -0.7 4 0.9
v -0.6 4 0.9
v 0.6 4 0.9
v 0.7 4 0.9
v 0.8 4 0.9
v -0.9 4 0.8
v -0.8 4 0.8
v 0.8 4 0.8
v 0.9 4 0.8
v -0.8 4 0.7
v -0.7 4 0.7
v 0.7 4 0.7
v 0.8 4 0.7
v -1 4 0.6
v -0.9 4 0.6
v 0.9 4 0.6
v 1 4 0.6
v -0.9 4 0.5
v -0.8 4 0.5
v 0.8 4 0.5
v 0.9 4 0.5
v -0.9 4 -0.4
v -0.8 4 -0.4
v 0.8 4 -0.4
v 0.9 4 -0.4
v -1 4 -0.5
v -0.9 4 -0.5
v -0.8 4 -0.5
v -0.7 4 -0.5
v 0.7 4 -0.5
v 0.8 4 -0.5
v 0.9 4 -0.5
v 1 4 -0.5
v -0.9 4 -0.6
v -0.8 4 -0.6
v -0.7 4 -0.6
v -0.5 4 -0.6
v 0.5 4 -0.6
v 0.7 4 -0.6
v 0.8 4 -0.6
v 0.9 4 -0.6
v -0.8 4 -0.7
v -0.6 4 -0.7
v -0.5 4 -0.7
v 0.5 4 -0.7
v 0.6 4 -0.7
v 0.8 4 -0.7
v -0.6 4 -0.8
v 0.6 4 -0.8

# faces
f 3/2/1 2/2/1 1/2/1
f 4/2/1 2/2/1 3/2/1
f 7/1/1 6/1/1 5/1/1
f 8/1/1 6/1/1 7/1/1
f 11/3/1 10/3/1 9/3/1
f 12/3/1 10/3/1 11/3/1
f 17/1/1 14/1/1 13/1/1
f 18/1/1 14/1/1 17/1/1
f 19/1/1 16/1/1 15/1/1
f 20/1/1 16/1/1 19/1/1
f 25/1/1 22/1/1 21/1/1
f 26/1/1 22/1/1 25/1/1
f 27/1/1 24/1/1 23/1/1
f 28/1/1 24/1/1 27/1/1
f 31/5/1 30/5/1 29/5/1
f 32/5/1 30/5/1 31/5/1
f 35/1/1 34/1/1 33/1/1
f 36/1/1 34/1/1 35/1/1
f 40/2/1 38/2/1 37/2/1
f 42/2/1 40/2/1 39/2/1
f 43/2/1 42/2/1 41/2/1
f 44/2/1 38/2/1 40/2/1
f 44/2/1 42/2/1 43/2/1
f 44/2/1 40/2/1 42/2/1
f 46/2/1 38/2/1 44/2/1
f 47/2/1 46/2/1 45/2/1
f 48/2/1 38/2/1 46/2/1
f 48/2/1 46/2/1 47/2/1
f 53/1/1 50/1/1 49/1/1
f 54/1/1 50/1/1 53/1/1
f 55/1/1 52/1/1 51/1/1
f 56/1/1 52/1/1 55/1/1
f 59/5/1 58/5/1 57/5/1
f 60/5/1 58/5/1 59/5/1
f 63/2/1 62/2/1 61/2/1
f 64/2/1 62/2/1 63/2/1
f 67/3/1 66/3/1 65/3/1
f 68/3/1 66/3/1 67/3/1
f 71/4/1 70/4/1 69/4/1
f 72/4/1 70/4/1 71/4/1
f 75/4/1 74/4/1 73/4/1
f 76/4/1 74/4/1 75/4/1
f 79/4/1 78/4/1 77/4/1
f 80/4/1 78/4/1 79/4/1
f 83/4/1 82/4/1 81/4/1
f 84/4/1 82/4/1 83/4/1
f 88/2/1 86/2/1 85/2/1
f 90/2/1 88/2/1 87/2/1
f 91/2/1 86/2/1 88/2/1
f 91/2/1 90/2/1 89/2/1
f 91/2/1 88/2/1 90/2/1
f 92/2/1 86/2/1 91/2/1
f 94/2/1 91/2/1 89/2/1
f 95/2/1 91/2/1 94/2/1
f 96/2/1 91/2/1 95/2/1
f 98/2/1 94/2/1 93/2/1
f 98/2/1 95/2/1 94/2/1
f 99/2/1 98/2/1 97/2/1
f 100/2/1 95/2/1 98/2/1
f 100/2/1 98/2/1 99/2/1
f 103/5/1 102/5/1 101/5/1
f 104/5/1 102/5/1 103/5/1
f 107/4/1 106/4/1 105/4/1
f 108/4/1 106/4/1 107/4/1
f 111/3/1 110/3/1 109/3/1
f 112/3/1 110/3/1 111/3/1
f 115/5/1 114/5/1 113/5/1
f 116/5/1 114/5/1 115/5/1
f 119/1/1 118/1/1 117/1/1
f 120/1/1 118/1/1 119/1/1
f 123/2/1 122/2/1 121/2/1
f 125/2/1 123/2/1 121/2/1
f 125/2/1 124/2/1 123/2/1
f 126/2/1 124/2/1 125/2/1
f 129/1/1 128/1/1 127/1/1
f 130/1/1 128/1/1 129/1/1
f 135/1/1 132/1/1 131/1/1
f 136/1/1 132/1/1 135/1/1
f 137/1/1 134/1/1 133/1/1
f 138/1/1 134/1/1 137/1/1
f 143/1/1 140/1/1 139/1/1
f 144/1/1 140/1/1 143/1/1
f 145/1/1 142/1/1 141/1/1
f 146/1/1 142/1/1 145/1/1
f 149/1/1 148/1/1 147/1/1
f 150/1/1 148/1/1 149/1/1
f 151/1/2 152/1/2 153/1/2
f 153/1/2 152/1/2 154/1/2
f 155/1/2 156/1/2 159/1/2
f 159/1/2 156/1/2 160/1/2
f 157/1/2 158/1/2 161/1/2
f 161/1/2 158/1/2 162/1/2
f 163/1/2 164/1/2 167/1/2
f 167/1/2 164/1/2 168/1/2
f 165/1/2 166/1/2 169/1/2
f 169/1/2 166/1/2 170/1/2
f 171/2/2 172/2/2 173/2/2
f 173/2/2 174/2/2 175/2/2
f 171/2/2 173/2/2 177/2/2
f 175/2/2 176/2/2 177/2/2
f 173/2/2 175/2/2 177/2/2
f 177/2/2 176/2/2 178/2/2
f 179/1/2 180/1/2 181/1/2
f 181/1/2 180/1/2 182/1/2
f 183/1/2 184/1/2 185/1/2
f 185/1/2 184/1/2 186/1/2
f 187/5/2 188/5/2 189/5/2
f 189/5/2 188/5/2 190/5/2
f 191/3/2 192/3/2 193/3/2
f 193/3/2 192/3/2 194/3/2
f 195/4/2 196/4/2 197/4/2
f 197/4/2 196/4/2 198/4/2
f 199/2/2 200/2/2 201/2/2
f 201/2/2 200/2/2 202/2/2
f 203/5/2 204/5/2 205/5/2
f 205/5/2 204/5/2 206/5/2
f 207/4/2 208/4/2 209/4/2
f 209/4/2 208/4/2 210/4/2
f 211/4/2 212/4/2 213/4/2
f 213/4/2 212/4/2 214/4/2
f 215/4/2 216/4/2 217/4/2
f 217/4/2 216/4/2 218/4/2
f 219/2/2 220/2/2 222/2/2
f 221/2/2 222/2/2 224/2/2
f 222/2/2 220/2/2 225/2/2
f 223/2/2 224/2/2 225/2/2
f 224/2/2 222/2/2 225/2/2
f 225/2/2 220/2/2 226/2/2
f 223/2/2 225/2/2 228/2/2
f 228/2/2 225/2/2 229/2/2
f 229/2/2 225/2/2 230/2/2
f 227/2/2 228/2/2 232/2/2
f 228/2/2 229/2/2 232/2/2
f 231/2/2 232/2/2 233/2/2
f 232/2/2 229/2/2 234/2/2
f 233/2/2 232/2/2 234/2/2
f 235/3/2 236/3/2 237/3/2
f 237/3/2 236/3/2 238/3/2
f 239/4/2 240/4/2 241/4/2
f 241/4/2 240/4/2 242/4/2
f 243/5/2 244/5/2 245/5/2
f 245/5/2 244/5/2 246/5/2
f 247/2/2 248/2/2 250/2/2
f 249/2/2 250/2/2 252/2/2
f 251/2/2 252/2/2 253/2/2
f 250/2/2 248/2/2 254/2/2
f 253/2/2 252/2/2 254/2/2
f 252/2/2 250/2/2 254/2/2
f 254/2/2 248/2/2 256/2/2
f 255/2/2 256/2/2 257/2/2
f 256/2/2 248/2/2 258/2/2
f 257/2/2 256/2/2 258/2/2
f 259/1/2 260/1/2 263/1/2
f 263/1/2 260/1/2 264/1/2
f 261/1/2 262/1/2 265/1/2
f 265/1/2 262/1/2 266/1/2
f 267/5/2 268/5/2 269/5/2
f 269/5/2 268/5/2 270/5/2
f 271/1/2 272/1/2 273/1/2
f 273/1/2 272/1/2 274/1/2
f 275/1/2 276/1/2 279/1/2
f 279/1/2 276/1/2 280/1/2
f 277/1/2 278/1/2 281/1/2
f 281/1/2 278/1/2 282/1/2
f 283/3/2 284/3/2 285/3/2
f 285/3/2 284/3/2 286/3/2
f 287/1/2 288/1/2 291/1/2
f 291/1/2 288/1/2 292/1/2
f 289/1/2 290/1/2 293/1/2
f 293/1/2 290/1/2 294/1/2
f 295/2/2 296/2/2 297/2/2
f 297/2/2 296/2/2 298/2/2
f 299/1/2 300/1/2 301/1/2
f 301/1/2 300/1/2 302/1/2
f 305/2/3 304/2/3 303/2/3
f 306/2/3 304/2/3 305/2/3
f 310/4/3 308/4/3 307/4/3
f 311/4/3 308/4/3 310/4/3
f 313/4/3 310/4/3 309/4/3
f 313/4/3 312/4/3 311/4/3
f 313/4/3 311/4/3 310/4/3
f 314/4/3 312/4/3 313/4/3
f 315/4/3 313/4/3 309/4/3
f 316/4/3 312/4/3 314/4/3
f 317/4/3 315/4/3 309/4/3
f 317/4/3 316/4/3 315/4/3
f 318/4/3 312/4/3 316/4/3
f 318/4/3 316/4/3 317/4/3
f 319/4/3 317/4/3 309/4/3
f 320/4/3 312/4/3 318/4/3
f 321/4/3 319/4/3 309/4/3
f 321/4/3 320/4/3 319/4/3
f 322/4/3 320/4/3 321/4/3
f 323/4/3 312/4/3 320/4/3
f 323/4/3 320/4/3 322/4/3
f 324/4/3 312/4/3 323/4/3
f 325/4/3 323/4/3 322/4/3
f 326/4/3 323/4/3 325/4/3
f 332/5/3 328/5/3 327/5/3
f 335/5/3 332/5/3 331/5/3
f 336/5/3 328/5/3 332/5/3
f 336/5/3 332/5/3 335/5/3
f 337/3/3 334/3/3 333/3/3
f 338/3/3 334/3/3 337/3/3
f 339/5/3 328/5/3 336/5/3
f 340/5/3 328/5/3 339/5/3
f 345/3/3 344/3/3 343/3/3
f 346/3/3 344/3/3 345/3/3
f 348/5/3 342/5/3 341/5/3
f 349/5/3 348/5/3 347/5/3
f 350/5/3 342/5/3 348/5/3
f 350/5/3 348/5/3 349/5/3
f 351/1/3 330/1/3 329/1/3
f 352/1/3 330/1/3 351/1/3
f 353/5/3 342/5/3 350/5/3
f 354/5/3 342/5/3 353/5/3
f 357/3/3 356/3/3 355/3/3
f 358/3/3 356/3/3 357/3/3
f 364/1/3 360/1/3 359/1/3
f 365/1/3 360/1/3 364/1/3
f 366/3/3 357/3/3 355/3/3
f 367/3/3 357/3/3 366/3/3
f 368/2/3 363/2/3 362/2/3
f 368/2/3 362/2/3 361/2/3
f 369/2/3 363/2/3 368/2/3
f 370/3/3 366/3/3 355/3/3
f 371/3/3 366/3/3 370/3/3
f 372/3/3 366/3/3 371/3/3
f 374/2/3 368/2/3 361/2/3
f 375/2/3 363/2/3 369/2/3
f 376/3/3 370/3/3 355/3/3
f 377/3/3 370/3/3 376/3/3
f 378/3/3 373/3/3 372/3/3
f 378/3/3 372/3/3 371/3/3
f 379/3/3 373/3/3 378/3/3
f 380/2/3 374/2/3 361/2/3
f 380/2/3 375/2/3 374/2/3
f 381/2/3 375/2/3 380/2/3
f 384/5/3 381/5/3 380/5/3
f 384/2/3 375/2/3 381/2/3
f 385/2/3 375/2/3 384/2/3
f 386/5/3 383/5/3 382/5/3
f 387/5/3 383/5/3 386/5/3
f 388/3/3 373/3/3 379/3/3
f 389/3/3 356/3/3 358/3/3
f 390/5/3 384/5/3 380/5/3
f 390/5/3 385/5/3 384/5/3
f 391/2/3 375/2/3 385/2/3
f 391/5/3 385/5/3 390/5/3
f 394/3/3 388/3/3 379/3/3
f 394/3/3 389/3/3 388/3/3
f 395/3/3 356/3/3 389/3/3
f 395/3/3 389/3/3 394/3/3
f 396/2/3 380/2/3 361/2/3
f 396/5/3 390/5/3 380/5/3
f 397/2/3 391/2/3 390/2/3
f 397/5/3 390/5/3 396/5/3
f 398/5/3 393/5/3 392/5/3
f 399/5/3 393/5/3 398/5/3
f 400/2/3 391/2/3 397/2/3
f 400/2/3 375/2/3 391/2/3
f 400/2/3 397/2/3 396/2/3
f 401/2/3 363/2/3 375/2/3
f 401/2/3 375/2/3 400/2/3
f 402/3/3 376/3/3 355/3/3
f 405/3/3 394/3/3 379/3/3
f 406/2/3 400/2/3 396/2/3
f 407/2/3 363/2/3 401/2/3
f 408/3/3 403/3/3 402/3/3
f 409/3/3 405/3/3 404/3/3
f 410/3/3 394/3/3 405/3/3
f 410/3/3 405/3/3 409/3/3
f 411/3/3 394/3/3 410/3/3
f 412/3/3 409/3/3 408/3/3
f 412/3/3 410/3/3 409/3/3
f 414/2/3 407/2/3 406/2/3
f 414/2/3 406/2/3 396/2/3
f 414/2/3 396/2/3 361/2/3
f 415/2/3 363/2/3 407/2/3
f 415/2/3 407/2/3 414/2/3
f 416/2/3 363/2/3 415/2/3
f 420/3/3 413/3/3 412/3/3
f 421/3/3 356/3/3 395/3/3
f 422/1/3 419/1/3 418/1/3
f 423/1/3 419/1/3 422/1/3
f 424/3/3 421/3/3 420/3/3
f 424/3/3 412/3/3 408/3/3
f 424/3/3 408/3/3 402/3/3
f 424/3/3 420/3/3 412/3/3
f 424/3/3 402/3/3 355/3/3
f 425/3/3 356/3/3 421/3/3
f 425/3/3 421/3/3 424/3/3
f 426/2/3 416/2/3 415/2/3
f 426/2/3 417/2/3 416/2/3
f 427/2/3 417/2/3 426/2/3
f 430/1/3 429/1/3 428/1/3
f 431/1/3 429/1/3 430/1/3
f 434/2/3 433/2/3 432/2/3
f 435/2/3 433/2/3 434/2/3
f 438/1/3 437/1/3 436/1/3
f 439/1/3 437/1/3 438/1/3
f 442/1/3 441/1/3 440/1/3
f 443/1/3 441/1/3 442/1/3
f 448/2/3 445/2/3 444/2/3
f 449/2/3 445/2/3 448/2/3
f 450/2/3 447/2/3 446/2/3
f 451/2/3 447/2/3 450/2/3
f 454/1/3 453/1/3 452/1/3
f 455/1/3 453/1/3 454/1/3
f 460/2/3 457/2/3 456/2/3
f 461/2/3 457/2/3 460/2/3
f 462/2/3 459/2/3 458/2/3
f 463/2/3 459/2/3 462/2/3
f 466/1/3 465/1/3 464/1/3
f 467/1/3 465/1/3 466/1/3
f 470/1/3 469/1/3 468/1/3
f 471/1/3 469/1/3 470/1/3
f 474/2/3 473/2/3 472/2/3
f 475/2/3 473/2/3 474/2/3
f 478/2/3 477/2/3 476/2/3
f 479/2/3 477/2/3 478/2/3
f 482/2/3 481/2/3 480/2/3
f 483/2/3 481/2/3 482/2/3
f 486/2/3 485/2/3 484/2/3
f 487/2/3 485/2/3 486/2/3
f 490/2/3 489/2/3 488/2/3
f 491/2/3 489/2/3 490/2/3
f 494/2/3 493/2/3 492/2/3
f 495/2/3 493/2/3 494/2/3
f 498/1/3 497/1/3 496/1/3
f 499/1/3 497/1/3 498/1/3
f 502/1/3 501/1/3 500/1/3
f 503/1/3 501/1/3 502/1/3
f 506/1/3 505/1/3 504/1/3
f 507/1/3 505/1/3 506/1/3
f 510/1/3 509/1/3 508/1/3
f 511/1/3 509/1/3 510/1/3
f 514/1/3 513/1/3 512/1/3
f 515/1/3 513/1/3 514/1/3
f 518/1/3 517/1/3 516/1/3
f 519/1/3 517/1/3 518/1/3
f 522/1/3 521/1/3 520/1/3
f 523/1/3 521/1/3 522/1/3
f 524/1/4 525/1/4 526/1/4
f 526/1/4 525/1/4 527/1/4
f 528/1/4 529/1/4 530/1/4
f 530/1/4 529/1/4 531/1/4
f 532/1/4 533/1/4 534/1/4
f 534/1/4 533/1/4 535/1/4
f 536/1/4 537/1/4 538/1/4
f 538/1/4 537/1/4 539/1/4
f 540/1/4 541/1/4 542/1/4
f 542/1/4 541/1/4 543/1/4
f 544/1/4 545/1/4 546/1/4
f 546/1/4 545/1/4 547/1/4
f 548/1/4 549/1/4 550/1/4
f 550/1/4 549/1/4 551/1/4
f 552/2/4 553/2/4 554/2/4
f 554/2/4 553/2/4 555/2/4
f 556/2/4 557/2/4 558/2/4
f 558/2/4 557/2/4 559/2/4
f 560/2/4 561/2/4 562/2/4
f 562/2/4 561/2/4 563/2/4
f 564/2/4 565/2/4 566/2/4
f 566/2/4 565/2/4 567/2/4
f 568/2/4 569/2/4 570/2/4
f 570/2/4 569/2/4 571/2/4
f 572/2/4 573/2/4 574/2/4
f 574/2/4 573/2/4 575/2/4
f 576/1/4 577/1/4 578/1/4
f 578/1/4 577/1/4 579/1/4
f 580/2/4 581/2/4 582/2/4
f 582/2/4 581/2/4 583/2/4
f 584/1/4 585/1/4 586/1/4
f 586/1/4 585/1/4 587/1/4
f 590/1/4 591/1/4 592/1/4
f 592/1/4 591/1/4 593/1/4
f 588/3/4 589/3/4 596/3/4
f 596/3/4 589/3/4 597/3/4
f 594/1/4 595/1/4 598/1/4
f 598/1/4 595/1/4 599/1/4
f 600/1/4 601/1/4 602/1/4
f 602/1/4 601/1/4 603/1/4
f 604/1/4 605/1/4 606/1/4
f 606/1/4 605/1/4 607/1/4
f 608/1/4 609/1/4 610/1/4
f 610/1/4 609/1/4 611/1/4
f 614/2/5 613/2/5 612/2/5
f 615/2/5 613/2/5 614/2/5
f 618/2/5 617/2/5 616/2/5
f 619/2/5 617/2/5 618/2/5
f 622/2/5 621/2/5 620/2/5
f 623/2/5 621/2/5 622/2/5
f 626/2/5 625/2/5 624/2/5
f 627/2/5 625/2/5 626/2/5
f 630/2/5 629/2/5 628/2/5
f 631/2/5 629/2/5 630/2/5
f 634/2/5 633/2/5 632/2/5
f 635/2/5 633/2/5 634/2/5
f 638/2/5 637/2/5 636/2/5
f 639/2/5 637/2/5 638/2/5
f 640/2/5 637/2/5 639/2/5
f 641/2/5 637/2/5 640/2/5
f 642/2/5 638/2/5 636/2/5
f 643/2/5 640/2/5 639/2/5
f 644/2/5 640/2/5 643/2/5
f 644/2/5 643/2/5 642/2/5
f 645/2/5 637/2/5 641/2/5
f 646/2/5 644/2/5 642/2/5
f 646/2/5 645/2/5 644/2/5
f 646/2/5 642/2/5 636/2/5
f 647/2/5 637/2/5 645/2/5
f 647/2/5 645/2/5 646/2/5
f 650/2/5 649/2/5 648/2/5
f 651/2/5 649/2/5 650/2/5
f 654/2/5 653/2/5 652/2/5
f 655/2/5 653/2/5 654/2/5
f 662/2/5 657/2/5 656/2/5
f 663/3/5 659/3/5 658/3/5
f 664/3/5 659/3/5 663/3/5
f 665/3/5 661/3/5 660/3/5
f 666/3/5 661/3/5 665/3/5
f 667/2/5 662/2/5 656/2/5
f 668/2/5 662/2/5 667/2/5
f 671/2/5 670/2/5 669/2/5
f 672/2/5 670/2/5 671/2/5
f 675/3/5 674/3/5 673/3/5
f 676/3/5 674/3/5 675/3/5
f 677/3/5 675/3/5 673/3/5
f 678/3/5 674/3/5 676/3/5
f 679/3/5 677/3/5 673/3/5
f 679/3/5 678/3/5 677/3/5
f 680/3/5 674/3/5 678/3/5
f 680/3/5 678/3/5 679/3/5
f 683/4/5 682/4/5 681/4/5
f 684/4/5 682/4/5 683/4/5
f 689/4/5 686/4/5 685/4/5
f 690/4/5 686/4/5 689/4/5
f 691/4/5 688/4/5 687/4/5
f 692/4/5 688/4/5 691/4/5
f 697/4/5 694/4/5 693/4/5
f 698/4/5 694/4/5 697/4/5
f 699/4/5 696/4/5 695/4/5
f 700/4/5 696/4/5 699/4/5
f 705/5/5 702/5/5 701/5/5
f 706/5/5 702/5/5 705/5/5
f 707/5/5 704/5/5 703/5/5
f 708/5/5 704/5/5 707/5/5
f 717/5/5 710/5/5 709/5/5
f 718/5/5 710/5/5 717/5/5
f 719/5/5 712/5/5 711/5/5
f 720/5/5 712/5/5 719/5/5
f 721/5/5 714/5/5 713/5/5
f 722/5/5 714/5/5 721/5/5
f 723/5/5 716/5/5 715/5/5
f 724/5/5 716/5/5 723/5/5
f 728/1/5 726/1/5 725/1/5
f 729/1/5 726/1/5 728/1/5
f 732/1/5 728/1/5 727/1/5
f 733/1/5 728/1/5 732/1/5
f 734/1/5 730/1/5 729/1/5
f 735/1/5 730/1/5 734/1/5
f 738/1/5 732/1/5 731/1/5
f 739/1/5 736/1/5 735/1/5
f 741/1/5 738/1/5 737/1/5
f 741/1/5 732/1/5 738/1/5
f 742/1/5 732/1/5 741/1/5
f 743/1/5 740/1/5 739/1/5
f 743/1/5 739/1/5 735/1/5
f 744/1/5 740/1/5 743/1/5
f 746/1/5 741/1/5 737/1/5
f 747/1/5 740/1/5 744/1/5
f 749/1/5 746/1/5 745/1/5
f 749/1/5 741/1/5 746/1/5
f 750/1/5 741/1/5 749/1/5
f 751/1/5 748/1/5 747/1/5
f 751/1/5 747/1/5 744/1/5
f 752/1/5 748/1/5 751/1/5
f 753/1/5 749/1/5 745/1/5
f 756/1/5 748/1/5 752/1/5
f 757/1/5 754/1/5 753/1/5
f 757/1/5 753/1/5 745/1/5
f 758/1/5 754/1/5 757/1/5
f 759/1/5 754/1/5 758/1/5
f 762/1/5 756/1/5 755/1/5
f 763/1/5 748/1/5 756/1/5
f 763/1/5 756/1/5 762/1/5
f 764/1/5 748/1/5 763/1/5
f 765/1/5 760/1/5 759/1/5
f 765/1/5 759/1/5 758/1/5
f 766/1/5 760/1/5 765/1/5
f 767/1/5 760/1/5 766/1/5
f 770/1/5 762/1/5 761/1/5
f 770/1/5 763/1/5 762/1/5
f 771/1/5 763/1/5 770/1/5
f 772/1/5 763/1/5 771/1/5
f 773/1/5 768/1/5 767/1/5
f 773/1/5 767/1/5 766/1/5
f 774/1/5 768/1/5 773/1/5
f 775/1/5 768/1/5 774/1/5
f 776/1/5 771/1/5 770/1/5
f 776/1/5 770/1/5 769/1/5
f 777/1/5 771/1/5 776/1/5
f 778/1/5 771/1/5 777/1/5
f 779/1/5 775/1/5 774/1/5
f 779/1/5 777/1/5 776/1/5
f 779/1/5 776/1/5 775/1/5
f 780/1/5 777/1/5 779/1/5
f 781/2/6 782/2/6 783/2/6
f 783/2/6 782/2/6 784/2/6
f 785/2/6 786/2/6 787/2/6
f 787/2/6 786/2/6 788/2/6
f 789/3/6 790/3/6 793/3/6
f 793/3/6 790/3/6 794/3/6
f 791/3/6 792/3/6 795/3/6
f 795/3/6 792/3/6 796/3/6
f 797/2/6 798/2/6 799/2/6
f 799/2/6 798/2/6 800/2/6
f 801/2/6 802/2/6 803/2/6
f 803/2/6 802/2/6 804/2/6
f 805/2/6 806/2/6 809/2/6
f 807/2/6 808/2/6 810/2/6
f 805/2/6 809/2/6 811/2/6
f 809/2/6 810/2/6 811/2/6
f 810/2/6 808/2/6 812/2/6
f 811/2/6 810/2/6 812/2/6
f 805/2/6 811/2/6 813/2/6
f 813/2/6 811/2/6 814/2/6
f 812/2/6 808/2/6 815/2/6
f 815/2/6 808/2/6 816/2/6
f 817/4/6 818/4/6 821/4/6
f 821/4/6 818/4/6 822/4/6
f 819/4/6 820/4/6 823/4/6
f 823/4/6 820/4/6 824/4/6
f 825/4/6 826/4/6 829/4/6
f 829/4/6 826/4/6 830/4/6
f 827/4/6 828/4/6 831/4/6
f 831/4/6 828/4/6 832/4/6
f 833/4/6 834/4/6 835/4/6
f 835/4/6 834/4/6 836/4/6
f 837/5/6 838/5/6 841/5/6
f 841/5/6 838/5/6 842/5/6
f 839/5/6 840/5/6 843/5/6
f 843/5/6 840/5/6 844/5/6
f 845/3/6 846/3/6 847/3/6
f 847/3/6 846/3/6 848/3/6
f 849/1/6 850/1/6 852/1/6
f 852/1/6 850/1/6 853/1/6
f 851/1/6 852/1/6 856/1/6
f 856/1/6 852/1/6 857/1/6
f 853/1/6 854/1/6 858/1/6
f 858/1/6 854/1/6 859/1/6
f 855/1/6 856/1/6 862/1/6
f 859/1/6 860/1/6 863/1/6
f 861/1/6 862/1/6 865/1/6
f 862/1/6 856/1/6 865/1/6
f 865/1/6 856/1/6 866/1/6
f 863/1/6 864/1/6 867/1/6
f 859/1/6 863/1/6 867/1/6
f 867/1/6 864/1/6 868/1/6
f 861/1/6 865/1/6 870/1/6
f 868/1/6 864/1/6 871/1/6
f 869/1/6 870/1/6 873/1/6
f 870/1/6 865/1/6 873/1/6
f 873/1/6 865/1/6 874/1/6
f 871/1/6 872/1/6 875/1/6
f 868/1/6 871/1/6 875/1/6
f 875/1/6 872/1/6 876/1/6
f 869/1/6 873/1/6 877/1/6
f 876/1/6 872/1/6 880/1/6
f 877/1/6 878/1/6 881/1/6
f 869/1/6 877/1/6 881/1/6
f 881/1/6 878/1/6 882/1/6
f 882/1/6 878/1/6 883/1/6
f 879/1/6 880/1/6 886/1/6
f 880/1/6 872/1/6 887/1/6
f 886/1/6 880/1/6 887/1/6
f 887/1/6 872/1/6 888/1/6
f 883/1/6 884/1/6 889/1/6
f 882/1/6 883/1/6 889/1/6
f 889/1/6 884/1/6 890/1/6
f 890/1/6 884/1/6 891/1/6
f 885/1/6 886/1/6 894/1/6
f 886/1/6 887/1/6 894/1/6
f 894/1/6 887/1/6 895/1/6
f 895/1/6 887/1/6 896/1/6
f 891/1/6 892/1/6 897/1/6
f 890/1/6 891/1/6 897/1/6
f 897/1/6 892/1/6 898/1/6
f 898/1/6 892/1/6 899/1/6
f 894/1/6 895/1/6 900/1/6
f 893/1/6 894/1/6 900/1/6
f 900/1/6 895/1/6 901/1/6
f 901/1/6 895/1/6 902/1/6
f 898/1/6 899/1/6 903/1/6
f 900/1/6 901/1/6 903/1/6
f 899/1/6 900/1/6 903/1/6
f 903/1/6 901/1/6 904/1/6
