# MagicaVoxel @ Ephtracy

# group
o 

# material
mtllib Chanyong.mtl
usemtl palette

# normals
vn -1 0 0
vn 1 0 0
vn 0 0 1
vn 0 0 -1
vn 0 -1 0
vn 0 1 0

# texcoords
vt 0.0605469 0.5
vt 0.123047 0.5
vt 0.994141 0.5

# verts
v -1.3 1.7 1.1
v -1.3 1.7 -1.3
v -1.3 3.5 1.1
v -1.3 3.5 -1.3
v -1.2 1.6 1.1
v -1.2 1.6 -1.3
v -1.2 1.7 1.2
v -1.2 1.7 1.1
v -1.2 1.7 -1.3
v -1.2 1.7 -1.4
v -1.2 3.5 1.2
v -1.2 3.5 1.1
v -1.2 3.5 -1.3
v -1.2 3.5 -1.4
v -1.2 3.6 1.1
v -1.2 3.6 -1.3
v -1.1 3.6 1
v -1.1 3.6 -1.2
v -1.1 3.7 1
v -1.1 3.7 -1.2
v -0.9 0.6 0.8
v -0.9 0.6 -1
v -0.9 1.7 0.8
v -0.9 1.7 -1
v -0.5 0 0.7
v -0.5 0 0
v -0.5 0 -0.2
v -0.5 0 -0.9
v -0.5 0.6 0.7
v -0.5 0.6 0
v -0.5 0.6 -0.2
v -0.5 0.6 -0.9
v -0.4 0.5 1.2
v -0.4 0.5 0.7
v -0.4 0.5 -0.9
v -0.4 0.5 -1.4
v -0.4 0.6 0.8
v -0.4 0.6 0.7
v -0.4 0.6 -0.9
v -0.4 0.6 -1
v -0.4 1.7 1.2
v -0.4 1.7 1.1
v -0.4 1.7 0.8
v -0.4 1.7 -1
v -0.4 1.7 -1.3
v -0.4 1.7 -1.4
v 0.1 2.2 1.3
v 0.1 2.2 1.2
v 0.1 2.8 1.3
v 0.1 2.8 1.2
v -1.1 1.6 1.1
v -1.1 1.6 -1.3
v -1.1 1.7 1.1
v -1.1 1.7 -1.3
v -1.1 1.7 -1.4
v -1.1 1.8 -1.3
v -1.1 1.8 -1.4
v -0.6 1.7 1.2
v -0.6 1.7 1.1
v -0.6 1.8 1.2
v -0.6 1.8 1.1
v -0.6 1.8 -1.3
v -0.6 1.8 -1.4
v -0.6 1.9 -1.3
v -0.6 1.9 -1.4
v -0.3 1.9 -1.3
v -0.3 1.9 -1.4
v -0.3 2 -1.3
v -0.3 2 -1.4
v -0.2 1.8 1.2
v -0.2 1.8 1.1
v -0.2 1.9 1.2
v -0.2 1.9 1.1
v 0 1.9 1.2
v 0 1.9 1.1
v 0 2 1.2
v 0 2 1.1
v 0 2 -1.3
v 0 2 -1.4
v 0 2.1 -1.3
v 0 2.1 -1.4
v 0.1 2 1.2
v 0.1 2 1.1
v 0.1 2.1 1.2
v 0.1 2.1 1.1
v 0.2 2.2 1.3
v 0.2 2.2 1.2
v 0.2 2.3 1.3
v 0.2 2.3 1.2
v 0.3 0.5 1.2
v 0.3 0.5 0.7
v 0.3 0.5 -0.9
v 0.3 0.5 -1.4
v 0.3 0.6 0.8
v 0.3 0.6 0.7
v 0.3 0.6 -0.9
v 0.3 0.6 -1
v 0.3 1.7 1.2
v 0.3 1.7 1.1
v 0.3 1.7 0.8
v 0.3 1.7 -1
v 0.3 1.7 -1.3
v 0.3 1.7 -1.4
v 0.3 2.1 1.2
v 0.3 2.1 1.1
v 0.3 2.1 -1.3
v 0.3 2.1 -1.4
v 0.3 2.2 1.2
v 0.3 2.2 1.1
v 0.3 2.2 -1.3
v 0.3 2.2 -1.4
v 0.3 2.3 1.3
v 0.3 2.3 1.2
v 0.3 2.4 1.3
v 0.3 2.4 1.2
v 0.4 0 0.7
v 0.4 0 0
v 0.4 0 -0.2
v 0.4 0 -0.9
v 0.4 0.6 0.7
v 0.4 0.6 0
v 0.4 0.6 -0.2
v 0.4 0.6 -0.9
v 0.4 2.2 1.2
v 0.4 2.2 1.1
v 0.4 2.3 1.2
v 0.4 2.3 1.1
v 0.5 2.2 -1.3
v 0.5 2.2 -1.4
v 0.5 2.3 -1.3
v 0.5 2.3 -1.4
v 0.5 2.4 1.3
v 0.5 2.4 1.2
v 0.5 2.6 1.3
v 0.5 2.6 1.2
v 0.6 2.3 1.2
v 0.6 2.3 1.1
v 0.6 2.3 -1.3
v 0.6 2.3 -1.4
v 0.6 2.4 1.2
v 0.6 2.4 1.1
v 0.6 2.4 -1.3
v 0.6 2.4 -1.4
v 0.6 2.6 1.3
v 0.6 2.6 1.2
v 0.6 2.7 1.3
v 0.6 2.7 1.2
v 0.7 2.4 1.2
v 0.7 2.4 1.1
v 0.7 2.5 1.2
v 0.7 2.5 1.1
v 0.7 2.7 1.3
v 0.7 2.7 1.2
v 0.7 2.8 1.3
v 0.7 2.8 1.2
v 0.8 0.6 0.8
v 0.8 0.6 -1
v 0.8 0.8 0
v 0.8 0.8 -0.1
v 0.8 0.9 0
v 0.8 0.9 -0.1
v 0.8 1.3 0.4
v 0.8 1.3 0.3
v 0.8 1.3 -0.5
v 0.8 1.3 -0.6
v 0.8 1.4 0.4
v 0.8 1.4 0.3
v 0.8 1.4 -0.5
v 0.8 1.4 -0.6
v 0.8 1.7 0.8
v 0.8 1.7 -1
v 0.8 2.4 -1.3
v 0.8 2.4 -1.4
v 0.8 2.5 -1.3
v 0.8 2.5 -1.4
v 0.9 0.8 0
v 0.9 0.8 -0.1
v 0.9 0.9 0
v 0.9 0.9 -0.1
v 0.9 1.3 0.4
v 0.9 1.3 0.3
v 0.9 1.3 -0.5
v 0.9 1.3 -0.6
v 0.9 1.4 0.4
v 0.9 1.4 0.3
v 0.9 1.4 -0.5
v 0.9 1.4 -0.6
v 0.9 2.5 1.2
v 0.9 2.5 1.1
v 0.9 2.5 -1.3
v 0.9 2.5 -1.4
v 0.9 2.6 1.2
v 0.9 2.6 1.1
v 0.9 2.6 -1.3
v 0.9 2.6 -1.4
v 1 2.6 1.2
v 1 2.6 1.1
v 1 2.6 -1.3
v 1 2.6 -1.4
v 1 2.7 1.2
v 1 2.7 1.1
v 1 2.7 -1.3
v 1 2.7 -1.4
v 1.1 1.7 1.1
v 1.1 1.7 -1.3
v 1.1 1.9 0.3
v 1.1 1.9 -0.4
v 1.1 2 0.3
v 1.1 2 -0.4
v 1.1 2.2 0.0999999
v 1.1 2.2 0
v 1.1 2.2 -0.1
v 1.1 2.2 -0.2
v 1.1 2.3 0.0999999
v 1.1 2.3 0
v 1.1 2.3 -0.1
v 1.1 2.3 -0.2
v 1.1 2.5 0.8
v 1.1 2.5 0.2
v 1.1 2.5 -0.3
v 1.1 2.5 -0.9
v 1.1 2.6 0.8
v 1.1 2.6 0.2
v 1.1 2.6 -0.3
v 1.1 2.6 -0.9
v 1.1 2.7 1.2
v 1.1 2.7 1.1
v 1.1 2.7 0.8
v 1.1 2.7 -1
v 1.1 2.7 -1.3
v 1.1 2.8 0.8
v 1.1 2.8 0.6
v 1.1 2.8 -0.7
v 1.1 2.8 -1
v 1.1 2.8 -1.3
v 1.1 2.8 -1.4
v 1.1 2.9 0.6
v 1.1 2.9 0.5
v 1.1 2.9 -0.6
v 1.1 2.9 -0.7
v 1.1 3 0.5
v 1.1 3 0.3
v 1.1 3 -0.5
v 1.1 3 -0.6
v 1.1 3.1 0.3
v 1.1 3.1 0.2
v 1.1 3.1 -0.4
v 1.1 3.1 -0.5
v 1.1 3.2 0.2
v 1.1 3.2 -0.4
v 1.1 3.5 1.2
v 1.1 3.5 1.1
v 1.1 3.5 -1.3
v 1.1 3.5 -1.4
v 1.1 3.6 1.1
v 1.1 3.6 1
v 1.1 3.6 -1.2
v 1.1 3.6 -1.3
v 1.1 3.7 1
v 1.1 3.7 -1.2
v 1.2 1.9 0.3
v 1.2 1.9 -0.4
v 1.2 2 0.3
v 1.2 2 -0.4
v 1.2 2.2 0.0999999
v 1.2 2.2 0
v 1.2 2.2 -0.1
v 1.2 2.2 -0.2
v 1.2 2.3 0.0999999
v 1.2 2.3 0
v 1.2 2.3 -0.1
v 1.2 2.3 -0.2
v 1.2 2.5 0.8
v 1.2 2.5 0.2
v 1.2 2.5 -0.3
v 1.2 2.5 -0.9
v 1.2 2.6 0.8
v 1.2 2.6 0.2
v 1.2 2.6 -0.3
v 1.2 2.6 -0.9
v 1.2 2.7 1.1
v 1.2 2.7 0.8
v 1.2 2.7 -1
v 1.2 2.7 -1.4
v 1.2 2.8 0.8
v 1.2 2.8 0.6
v 1.2 2.8 -0.7
v 1.2 2.8 -1
v 1.2 2.8 -1.3
v 1.2 2.8 -1.4
v 1.2 2.9 0.6
v 1.2 2.9 0.5
v 1.2 2.9 -0.6
v 1.2 2.9 -0.7
v 1.2 3 0.5
v 1.2 3 0.3
v 1.2 3 -0.5
v 1.2 3 -0.6
v 1.2 3.1 0.7
v 1.2 3.1 0.4
v 1.2 3.1 0.3
v 1.2 3.1 0.2
v 1.2 3.1 -0.4
v 1.2 3.1 -0.5
v 1.2 3.2 0.2
v 1.2 3.2 -0.4
v 1.2 3.3 0.2
v 1.2 3.3 -0.1
v 1.2 3.4 0
v 1.2 3.4 -0.1
v 1.2 3.5 1.1
v 1.2 3.5 0.7
v 1.2 3.5 0.4
v 1.2 3.5 0.2
v 1.2 3.5 0
v 1.2 3.5 -1.3
v 1.3 3.1 0.7
v 1.3 3.1 0.4
v 1.3 3.3 0.2
v 1.3 3.3 -0.1
v 1.3 3.4 0
v 1.3 3.4 -0.1
v 1.3 3.5 0.7
v 1.3 3.5 0.4
v 1.3 3.5 0.2
v 1.3 3.5 0
v 0.1 2.2 1.3
v 0.1 2.8 1.3
v 0.2 2.2 1.3
v 0.2 2.3 1.3
v 0.3 2.3 1.3
v 0.3 2.4 1.3
v 0.5 2.4 1.3
v 0.5 2.6 1.3
v 0.6 2.6 1.3
v 0.6 2.7 1.3
v 0.7 2.7 1.3
v 0.7 2.8 1.3
v -1.2 1.7 1.2
v -1.2 3.5 1.2
v -0.6 1.7 1.2
v -0.6 1.8 1.2
v -0.4 0.5 1.2
v -0.4 1.7 1.2
v -0.2 1.8 1.2
v -0.2 1.9 1.2
v 0 1.9 1.2
v 0 2 1.2
v 0.1 2 1.2
v 0.1 2.1 1.2
v 0.1 2.2 1.2
v 0.1 2.8 1.2
v 0.2 2.2 1.2
v 0.2 2.3 1.2
v 0.3 0.5 1.2
v 0.3 1.7 1.2
v 0.3 2.1 1.2
v 0.3 2.2 1.2
v 0.3 2.3 1.2
v 0.3 2.4 1.2
v 0.4 2.2 1.2
v 0.4 2.3 1.2
v 0.5 2.4 1.2
v 0.5 2.6 1.2
v 0.6 2.3 1.2
v 0.6 2.4 1.2
v 0.6 2.6 1.2
v 0.6 2.7 1.2
v 0.7 2.4 1.2
v 0.7 2.5 1.2
v 0.7 2.7 1.2
v 0.7 2.8 1.2
v 0.9 2.5 1.2
v 0.9 2.6 1.2
v 1 2.6 1.2
v 1 2.7 1.2
v 1.1 2.7 1.2
v 1.1 3.5 1.2
v -1.3 1.7 1.1
v -1.3 3.5 1.1
v -1.2 1.6 1.1
v -1.2 1.7 1.1
v -1.2 3.5 1.1
v -1.2 3.6 1.1
v -1.1 1.6 1.1
v -1.1 1.7 1.1
v -0.6 1.7 1.1
v -0.6 1.8 1.1
v -0.4 1.7 1.1
v -0.2 1.8 1.1
v -0.2 1.9 1.1
v 0 1.9 1.1
v 0 2 1.1
v 0.1 2 1.1
v 0.1 2.1 1.1
v 0.3 1.7 1.1
v 0.3 2.1 1.1
v 0.3 2.2 1.1
v 0.4 2.2 1.1
v 0.4 2.3 1.1
v 0.6 2.3 1.1
v 0.6 2.4 1.1
v 0.7 2.4 1.1
v 0.7 2.5 1.1
v 0.9 2.5 1.1
v 0.9 2.6 1.1
v 1 2.6 1.1
v 1 2.7 1.1
v 1.1 1.7 1.1
v 1.1 2.7 1.1
v 1.1 3.5 1.1
v 1.1 3.6 1.1
v 1.2 2.7 1.1
v 1.2 3.5 1.1
v -1.1 3.6 1
v -1.1 3.7 1
v 1.1 3.6 1
v 1.1 3.7 1
v -0.9 0.6 0.8
v -0.9 1.7 0.8
v -0.4 0.6 0.8
v -0.4 1.7 0.8
v 0.3 0.6 0.8
v 0.3 1.7 0.8
v 0.8 0.6 0.8
v 0.8 1.7 0.8
v 1.1 2.5 0.8
v 1.1 2.6 0.8
v 1.2 2.5 0.8
v 1.2 2.6 0.8
v -0.5 0 0.7
v -0.5 0.6 0.7
v -0.4 0.5 0.7
v -0.4 0.6 0.7
v 0.3 0.5 0.7
v 0.3 0.6 0.7
v 0.4 0 0.7
v 0.4 0.6 0.7
v 1.2 3.1 0.7
v 1.2 3.5 0.7
v 1.3 3.1 0.7
v 1.3 3.5 0.7
v 0.8 1.3 0.4
v 0.8 1.4 0.4
v 0.9 1.3 0.4
v 0.9 1.4 0.4
v 1.1 1.9 0.3
v 1.1 2 0.3
v 1.2 1.9 0.3
v 1.2 2 0.3
v 1.2 3.3 0.2
v 1.2 3.5 0.2
v 1.3 3.3 0.2
v 1.3 3.5 0.2
v 1.1 2.2 0.0999999
v 1.1 2.3 0.0999999
v 1.2 2.2 0.0999999
v 1.2 2.3 0.0999999
v 0.8 0.8 0
v 0.8 0.9 0
v 0.9 0.8 0
v 0.9 0.9 0
v 1.1 2.2 -0.1
v 1.1 2.3 -0.1
v 1.2 2.2 -0.1
v 1.2 2.3 -0.1
v -0.5 0 -0.2
v -0.5 0.6 -0.2
v 0.4 0 -0.2
v 0.4 0.6 -0.2
v 1.1 2.5 -0.3
v 1.1 2.6 -0.3
v 1.2 2.5 -0.3
v 1.2 2.6 -0.3
v 1.1 3.1 -0.4
v 1.1 3.2 -0.4
v 1.2 3.1 -0.4
v 1.2 3.2 -0.4
v 0.8 1.3 -0.5
v 0.8 1.4 -0.5
v 0.9 1.3 -0.5
v 0.9 1.4 -0.5
v 1.1 3 -0.5
v 1.1 3.1 -0.5
v 1.2 3 -0.5
v 1.2 3.1 -0.5
v 1.1 2.9 -0.6
v 1.1 3 -0.6
v 1.2 2.9 -0.6
v 1.2 3 -0.6
v 1.1 2.8 -0.7
v 1.1 2.9 -0.7
v 1.2 2.8 -0.7
v 1.2 2.9 -0.7
v 1.1 2.7 -1
v 1.1 2.8 -1
v 1.2 2.7 -1
v 1.2 2.8 -1
v 1.1 2.7 0.8
v 1.1 2.8 0.8
v 1.2 2.7 0.8
v 1.2 2.8 0.8
v 1.1 2.8 0.6
v 1.1 2.9 0.6
v 1.2 2.8 0.6
v 1.2 2.9 0.6
v 1.1 2.9 0.5
v 1.1 3 0.5
v 1.2 2.9 0.5
v 1.2 3 0.5
v 1.2 3.1 0.4
v 1.2 3.5 0.4
v 1.3 3.1 0.4
v 1.3 3.5 0.4
v 0.8 1.3 0.3
v 0.8 1.4 0.3
v 0.9 1.3 0.3
v 0.9 1.4 0.3
v 1.1 3 0.3
v 1.1 3.1 0.3
v 1.2 3 0.3
v 1.2 3.1 0.3
v 1.1 2.5 0.2
v 1.1 2.6 0.2
v 1.1 3.1 0.2
v 1.1 3.2 0.2
v 1.2 2.5 0.2
v 1.2 2.6 0.2
v 1.2 3.1 0.2
v 1.2 3.2 0.2
v -0.5 0 0
v -0.5 0.6 0
v 0.4 0 0
v 0.4 0.6 0
v 1.1 2.2 0
v 1.1 2.3 0
v 1.2 2.2 0
v 1.2 2.3 0
v 1.2 3.4 0
v 1.2 3.5 0
v 1.3 3.4 0
v 1.3 3.5 0
v 0.8 0.8 -0.1
v 0.8 0.9 -0.1
v 0.9 0.8 -0.1
v 0.9 0.9 -0.1
v 1.2 3.3 -0.1
v 1.2 3.4 -0.1
v 1.3 3.3 -0.1
v 1.3 3.4 -0.1
v 1.1 2.2 -0.2
v 1.1 2.3 -0.2
v 1.2 2.2 -0.2
v 1.2 2.3 -0.2
v 1.1 1.9 -0.4
v 1.1 2 -0.4
v 1.2 1.9 -0.4
v 1.2 2 -0.4
v 0.8 1.3 -0.6
v 0.8 1.4 -0.6
v 0.9 1.3 -0.6
v 0.9 1.4 -0.6
v -0.5 0 -0.9
v -0.5 0.6 -0.9
v -0.4 0.5 -0.9
v -0.4 0.6 -0.9
v 0.3 0.5 -0.9
v 0.3 0.6 -0.9
v 0.4 0 -0.9
v 0.4 0.6 -0.9
v 1.1 2.5 -0.9
v 1.1 2.6 -0.9
v 1.2 2.5 -0.9
v 1.2 2.6 -0.9
v -0.9 0.6 -1
v -0.9 1.7 -1
v -0.4 0.6 -1
v -0.4 1.7 -1
v 0.3 0.6 -1
v 0.3 1.7 -1
v 0.8 0.6 -1
v 0.8 1.7 -1
v -1.1 3.6 -1.2
v -1.1 3.7 -1.2
v 1.1 3.6 -1.2
v 1.1 3.7 -1.2
v -1.3 1.7 -1.3
v -1.3 3.5 -1.3
v -1.2 1.6 -1.3
v -1.2 1.7 -1.3
v -1.2 3.5 -1.3
v -1.2 3.6 -1.3
v -1.1 1.6 -1.3
v -1.1 1.7 -1.3
v -1.1 1.8 -1.3
v -0.6 1.8 -1.3
v -0.6 1.9 -1.3
v -0.4 1.7 -1.3
v -0.3 1.9 -1.3
v -0.3 2 -1.3
v 0 2 -1.3
v 0 2.1 -1.3
v 0.3 1.7 -1.3
v 0.3 2.1 -1.3
v 0.3 2.2 -1.3
v 0.5 2.2 -1.3
v 0.5 2.3 -1.3
v 0.6 2.3 -1.3
v 0.6 2.4 -1.3
v 0.8 2.4 -1.3
v 0.8 2.5 -1.3
v 0.9 2.5 -1.3
v 0.9 2.6 -1.3
v 1 2.6 -1.3
v 1 2.7 -1.3
v 1.1 1.7 -1.3
v 1.1 2.7 -1.3
v 1.1 2.8 -1.3
v 1.1 3.5 -1.3
v 1.1 3.6 -1.3
v 1.2 2.8 -1.3
v 1.2 3.5 -1.3
v -1.2 1.7 -1.4
v -1.2 3.5 -1.4
v -1.1 1.7 -1.4
v -1.1 1.8 -1.4
v -0.6 1.8 -1.4
v -0.6 1.9 -1.4
v -0.4 0.5 -1.4
v -0.4 1.7 -1.4
v -0.3 1.9 -1.4
v -0.3 2 -1.4
v 0 2 -1.4
v 0 2.1 -1.4
v 0.3 0.5 -1.4
v 0.3 1.7 -1.4
v 0.3 2.1 -1.4
v 0.3 2.2 -1.4
v 0.5 2.2 -1.4
v 0.5 2.3 -1.4
v 0.6 2.3 -1.4
v 0.6 2.4 -1.4
v 0.8 2.4 -1.4
v 0.8 2.5 -1.4
v 0.9 2.5 -1.4
v 0.9 2.6 -1.4
v 1 2.6 -1.4
v 1 2.7 -1.4
v 1.1 2.8 -1.4
v 1.1 3.5 -1.4
v 1.2 2.7 -1.4
v 1.2 2.8 -1.4
v -0.5 0 0.7
v 0.4 0 0.7
v -0.5 0 0
v 0.4 0 0
v -0.5 0 -0.2
v 0.4 0 -0.2
v -0.5 0 -0.9
v 0.4 0 -0.9
v -0.4 0.5 1.2
v 0.3 0.5 1.2
v -0.4 0.5 0.7
v 0.3 0.5 0.7
v -0.4 0.5 -0.9
v 0.3 0.5 -0.9
v -0.4 0.5 -1.4
v 0.3 0.5 -1.4
v -0.9 0.6 0.8
v -0.4 0.6 0.8
v 0.3 0.6 0.8
v 0.8 0.6 0.8
v -0.5 0.6 0.7
v -0.4 0.6 0.7
v 0.3 0.6 0.7
v 0.4 0.6 0.7
v -0.5 0.6 0
v 0.4 0.6 0
v -0.5 0.6 -0.2
v 0.4 0.6 -0.2
v -0.5 0.6 -0.9
v -0.4 0.6 -0.9
v 0.3 0.6 -0.9
v 0.4 0.6 -0.9
v -0.9 0.6 -1
v -0.4 0.6 -1
v 0.3 0.6 -1
v 0.8 0.6 -1
v 0.8 0.8 0
v 0.9 0.8 0
v 0.8 0.8 -0.1
v 0.9 0.8 -0.1
v 0.8 1.3 0.4
v 0.9 1.3 0.4
v 0.8 1.3 0.3
v 0.9 1.3 0.3
v 0.8 1.3 -0.5
v 0.9 1.3 -0.5
v 0.8 1.3 -0.6
v 0.9 1.3 -0.6
v -1.2 1.6 1.1
v -1.1 1.6 1.1
v -1.2 1.6 -1.3
v -1.1 1.6 -1.3
v -1.2 1.7 1.2
v -0.6 1.7 1.2
v -1.3 1.7 1.1
v -1.2 1.7 1.1
v -1.1 1.7 1.1
v -0.6 1.7 1.1
v -0.4 1.7 1.1
v 0.3 1.7 1.1
v 1.1 1.7 1.1
v -0.9 1.7 0.8
v -0.4 1.7 0.8
v 0.3 1.7 0.8
v 0.8 1.7 0.8
v -0.9 1.7 -1
v -0.4 1.7 -1
v 0.3 1.7 -1
v 0.8 1.7 -1
v -1.3 1.7 -1.3
v -1.2 1.7 -1.3
v -1.1 1.7 -1.3
v -0.4 1.7 -1.3
v 0.3 1.7 -1.3
v 1.1 1.7 -1.3
v -1.2 1.7 -1.4
v -1.1 1.7 -1.4
v -0.6 1.8 1.2
v -0.2 1.8 1.2
v -0.6 1.8 1.1
v -0.2 1.8 1.1
v -1.1 1.8 -1.3
v -0.6 1.8 -1.3
v -1.1 1.8 -1.4
v -0.6 1.8 -1.4
v -0.2 1.9 1.2
v 0 1.9 1.2
v -0.2 1.9 1.1
v 0 1.9 1.1
v 1.1 1.9 0.3
v 1.2 1.9 0.3
v 1.1 1.9 -0.4
v 1.2 1.9 -0.4
v -0.6 1.9 -1.3
v -0.3 1.9 -1.3
v -0.6 1.9 -1.4
v -0.3 1.9 -1.4
v 0 2 1.2
v 0.1 2 1.2
v 0 2 1.1
v 0.1 2 1.1
v -0.3 2 -1.3
v 0 2 -1.3
v -0.3 2 -1.4
v 0 2 -1.4
v 0.1 2.1 1.2
v 0.3 2.1 1.2
v 0.1 2.1 1.1
v 0.3 2.1 1.1
v 0 2.1 -1.3
v 0.3 2.1 -1.3
v 0 2.1 -1.4
v 0.3 2.1 -1.4
v 0.1 2.2 1.3
v 0.2 2.2 1.3
v 0.1 2.2 1.2
v 0.2 2.2 1.2
v 0.3 2.2 1.2
v 0.4 2.2 1.2
v 0.3 2.2 1.1
v 0.4 2.2 1.1
v 1.1 2.2 0.0999999
v 1.2 2.2 0.0999999
v 1.1 2.2 0
v 1.2 2.2 0
v 1.1 2.2 -0.1
v 1.2 2.2 -0.1
v 1.1 2.2 -0.2
v 1.2 2.2 -0.2
v 0.3 2.2 -1.3
v 0.5 2.2 -1.3
v 0.3 2.2 -1.4
v 0.5 2.2 -1.4
v 0.2 2.3 1.3
v 0.3 2.3 1.3
v 0.2 2.3 1.2
v 0.3 2.3 1.2
v 0.4 2.3 1.2
v 0.6 2.3 1.2
v 0.4 2.3 1.1
v 0.6 2.3 1.1
v 0.5 2.3 -1.3
v 0.6 2.3 -1.3
v 0.5 2.3 -1.4
v 0.6 2.3 -1.4
v 0.3 2.4 1.3
v 0.5 2.4 1.3
v 0.3 2.4 1.2
v 0.5 2.4 1.2
v 0.6 2.4 1.2
v 0.7 2.4 1.2
v 0.6 2.4 1.1
v 0.7 2.4 1.1
v 0.6 2.4 -1.3
v 0.8 2.4 -1.3
v 0.6 2.4 -1.4
v 0.8 2.4 -1.4
v 0.7 2.5 1.2
v 0.9 2.5 1.2
v 0.7 2.5 1.1
v 0.9 2.5 1.1
v 1.1 2.5 0.8
v 1.2 2.5 0.8
v 1.1 2.5 0.2
v 1.2 2.5 0.2
v 1.1 2.5 -0.3
v 1.2 2.5 -0.3
v 1.1 2.5 -0.9
v 1.2 2.5 -0.9
v 0.8 2.5 -1.3
v 0.9 2.5 -1.3
v 0.8 2.5 -1.4
v 0.9 2.5 -1.4
v 0.5 2.6 1.3
v 0.6 2.6 1.3
v 0.5 2.6 1.2
v 0.6 2.6 1.2
v 0.9 2.6 1.2
v 1 2.6 1.2
v 0.9 2.6 1.1
v 1 2.6 1.1
v 0.9 2.6 -1.3
v 1 2.6 -1.3
v 0.9 2.6 -1.4
v 1 2.6 -1.4
v 0.6 2.7 1.3
v 0.7 2.7 1.3
v 0.6 2.7 1.2
v 0.7 2.7 1.2
v 1 2.7 1.2
v 1.1 2.7 1.2
v 1 2.7 1.1
v 1.1 2.7 1.1
v 1.2 2.7 1.1
v 1.1 2.7 0.8
v 1.2 2.7 0.8
v 1.1 2.7 -1
v 1.2 2.7 -1
v 1 2.7 -1.3
v 1.1 2.7 -1.3
v 1 2.7 -1.4
v 1.2 2.7 -1.4
v 1.1 2.8 0.8
v 1.2 2.8 0.8
v 1.1 2.8 0.6
v 1.2 2.8 0.6
v 1.1 2.8 -0.7
v 1.2 2.8 -0.7
v 1.1 2.8 -1
v 1.2 2.8 -1
v 1.1 2.9 0.6
v 1.2 2.9 0.6
v 1.1 2.9 0.5
v 1.2 2.9 0.5
v 1.1 2.9 -0.6
v 1.2 2.9 -0.6
v 1.1 2.9 -0.7
v 1.2 2.9 -0.7
v 1.1 3 0.5
v 1.2 3 0.5
v 1.1 3 0.3
v 1.2 3 0.3
v 1.1 3 -0.5
v 1.2 3 -0.5
v 1.1 3 -0.6
v 1.2 3 -0.6
v 1.2 3.1 0.7
v 1.3 3.1 0.7
v 1.2 3.1 0.4
v 1.3 3.1 0.4
v 1.1 3.1 0.3
v 1.2 3.1 0.3
v 1.1 3.1 0.2
v 1.2 3.1 0.2
v 1.1 3.1 -0.4
v 1.2 3.1 -0.4
v 1.1 3.1 -0.5
v 1.2 3.1 -0.5
v 1.1 3.2 0.2
v 1.2 3.2 0.2
v 1.1 3.2 -0.4
v 1.2 3.2 -0.4
v 1.2 3.3 0.2
v 1.3 3.3 0.2
v 1.2 3.3 -0.1
v 1.3 3.3 -0.1
v 0.8 0.9 0
v 0.9 0.9 0
v 0.8 0.9 -0.1
v 0.9 0.9 -0.1
v 0.8 1.4 0.4
v 0.9 1.4 0.4
v 0.8 1.4 0.3
v 0.9 1.4 0.3
v 0.8 1.4 -0.5
v 0.9 1.4 -0.5
v 0.8 1.4 -0.6
v 0.9 1.4 -0.6
v -0.4 1.7 1.2
v 0.3 1.7 1.2
v -0.4 1.7 1.1
v 0.3 1.7 1.1
v -0.4 1.7 -1.3
v 0.3 1.7 -1.3
v -0.4 1.7 -1.4
v 0.3 1.7 -1.4
v 1.1 2 0.3
v 1.2 2 0.3
v 1.1 2 -0.4
v 1.2 2 -0.4
v 1.1 2.3 0.0999999
v 1.2 2.3 0.0999999
v 1.1 2.3 0
v 1.2 2.3 0
v 1.1 2.3 -0.1
v 1.2 2.3 -0.1
v 1.1 2.3 -0.2
v 1.2 2.3 -0.2
v 1.1 2.6 0.8
v 1.2 2.6 0.8
v 1.1 2.6 0.2
v 1.2 2.6 0.2
v 1.1 2.6 -0.3
v 1.2 2.6 -0.3
v 1.1 2.6 -0.9
v 1.2 2.6 -0.9
v 0.1 2.8 1.3
v 0.7 2.8 1.3
v 0.1 2.8 1.2
v 0.7 2.8 1.2
v 1.1 2.8 -1.3
v 1.2 2.8 -1.3
v 1.1 2.8 -1.4
v 1.2 2.8 -1.4
v 1.2 3.4 0
v 1.3 3.4 0
v 1.2 3.4 -0.1
v 1.3 3.4 -0.1
v -1.2 3.5 1.2
v 1.1 3.5 1.2
v -1.3 3.5 1.1
v -1.2 3.5 1.1
v 1.1 3.5 1.1
v 1.2 3.5 1.1
v 1.2 3.5 0.7
v 1.3 3.5 0.7
v 1.2 3.5 0.4
v 1.3 3.5 0.4
v 1.2 3.5 0.2
v 1.3 3.5 0.2
v 1.2 3.5 0
v 1.3 3.5 0
v -1.3 3.5 -1.3
v -1.2 3.5 -1.3
v 1.1 3.5 -1.3
v 1.2 3.5 -1.3
v -1.2 3.5 -1.4
v 1.1 3.5 -1.4
v -1.2 3.6 1.1
v 1.1 3.6 1.1
v -1.1 3.6 1
v 1.1 3.6 1
v -1.1 3.6 -1.2
v 1.1 3.6 -1.2
v -1.2 3.6 -1.3
v 1.1 3.6 -1.3
v -1.1 3.7 1
v 1.1 3.7 1
v -1.1 3.7 -1.2
v 1.1 3.7 -1.2

# faces
f 3/3/1 2/3/1 1/3/1
f 4/3/1 2/3/1 3/3/1
f 8/3/1 6/3/1 5/3/1
f 9/3/1 6/3/1 8/3/1
f 11/3/1 8/3/1 7/3/1
f 12/3/1 8/3/1 11/3/1
f 13/3/1 10/3/1 9/3/1
f 14/3/1 10/3/1 13/3/1
f 15/3/1 13/3/1 12/3/1
f 16/3/1 13/3/1 15/3/1
f 19/3/1 18/3/1 17/3/1
f 20/3/1 18/3/1 19/3/1
f 23/1/1 22/1/1 21/1/1
f 24/1/1 22/1/1 23/1/1
f 29/1/1 26/1/1 25/1/1
f 30/1/1 26/1/1 29/1/1
f 31/1/1 28/1/1 27/1/1
f 32/1/1 28/1/1 31/1/1
f 37/1/1 34/1/1 33/1/1
f 38/1/1 34/1/1 37/1/1
f 39/1/1 36/1/1 35/1/1
f 40/1/1 36/1/1 39/1/1
f 41/1/1 37/1/1 33/1/1
f 42/1/1 37/1/1 41/1/1
f 43/1/1 37/1/1 42/1/1
f 44/1/1 36/1/1 40/1/1
f 45/1/1 36/1/1 44/1/1
f 46/1/1 36/1/1 45/1/1
f 49/3/1 48/3/1 47/3/1
f 50/3/1 48/3/1 49/3/1
f 51/3/2 52/3/2 53/3/2
f 53/3/2 52/3/2 54/3/2
f 54/3/2 55/3/2 56/3/2
f 56/3/2 55/3/2 57/3/2
f 58/3/2 59/3/2 60/3/2
f 60/3/2 59/3/2 61/3/2
f 62/3/2 63/3/2 64/3/2
f 64/3/2 63/3/2 65/3/2
f 66/3/2 67/3/2 68/3/2
f 68/3/2 67/3/2 69/3/2
f 70/3/2 71/3/2 72/3/2
f 72/3/2 71/3/2 73/3/2
f 74/3/2 75/3/2 76/3/2
f 76/3/2 75/3/2 77/3/2
f 78/3/2 79/3/2 80/3/2
f 80/3/2 79/3/2 81/3/2
f 82/3/2 83/3/2 84/3/2
f 84/3/2 83/3/2 85/3/2
f 86/3/2 87/3/2 88/3/2
f 88/3/2 87/3/2 89/3/2
f 90/1/2 91/1/2 94/1/2
f 94/1/2 91/1/2 95/1/2
f 92/1/2 93/1/2 96/1/2
f 96/1/2 93/1/2 97/1/2
f 90/1/2 94/1/2 98/1/2
f 98/1/2 94/1/2 99/1/2
f 99/1/2 94/1/2 100/1/2
f 97/1/2 93/1/2 101/1/2
f 101/1/2 93/1/2 102/1/2
f 102/1/2 93/1/2 103/1/2
f 104/3/2 105/3/2 108/3/2
f 108/3/2 105/3/2 109/3/2
f 106/3/2 107/3/2 110/3/2
f 110/3/2 107/3/2 111/3/2
f 112/3/2 113/3/2 114/3/2
f 114/3/2 113/3/2 115/3/2
f 116/1/2 117/1/2 120/1/2
f 120/1/2 117/1/2 121/1/2
f 118/1/2 119/1/2 122/1/2
f 122/1/2 119/1/2 123/1/2
f 124/3/2 125/3/2 126/3/2
f 126/3/2 125/3/2 127/3/2
f 128/3/2 129/3/2 130/3/2
f 130/3/2 129/3/2 131/3/2
f 132/3/2 133/3/2 134/3/2
f 134/3/2 133/3/2 135/3/2
f 136/3/2 137/3/2 140/3/2
f 140/3/2 137/3/2 141/3/2
f 138/3/2 139/3/2 142/3/2
f 142/3/2 139/3/2 143/3/2
f 144/3/2 145/3/2 146/3/2
f 146/3/2 145/3/2 147/3/2
f 148/3/2 149/3/2 150/3/2
f 150/3/2 149/3/2 151/3/2
f 152/3/2 153/3/2 154/3/2
f 154/3/2 153/3/2 155/3/2
f 156/1/2 157/1/2 158/1/2
f 158/1/2 157/1/2 159/1/2
f 156/1/2 158/1/2 160/1/2
f 159/1/2 157/1/2 161/1/2
f 156/1/2 160/1/2 162/1/2
f 160/1/2 161/1/2 162/1/2
f 162/1/2 161/1/2 163/1/2
f 161/1/2 157/1/2 164/1/2
f 163/1/2 161/1/2 164/1/2
f 164/1/2 157/1/2 165/1/2
f 156/1/2 162/1/2 166/1/2
f 163/1/2 164/1/2 167/1/2
f 167/1/2 164/1/2 168/1/2
f 165/1/2 157/1/2 169/1/2
f 167/1/2 168/1/2 170/1/2
f 168/1/2 169/1/2 170/1/2
f 156/1/2 166/1/2 170/1/2
f 166/1/2 167/1/2 170/1/2
f 169/1/2 157/1/2 171/1/2
f 170/1/2 169/1/2 171/1/2
f 172/3/2 173/3/2 174/3/2
f 174/3/2 173/3/2 175/3/2
f 176/3/2 177/3/2 178/3/2
f 178/3/2 177/3/2 179/3/2
f 180/2/2 181/2/2 184/2/2
f 184/2/2 181/2/2 185/2/2
f 182/2/2 183/2/2 186/2/2
f 186/2/2 183/2/2 187/2/2
f 188/3/2 189/3/2 192/3/2
f 192/3/2 189/3/2 193/3/2
f 190/3/2 191/3/2 194/3/2
f 194/3/2 191/3/2 195/3/2
f 196/3/2 197/3/2 200/3/2
f 200/3/2 197/3/2 201/3/2
f 198/3/2 199/3/2 202/3/2
f 202/3/2 199/3/2 203/3/2
f 204/1/2 205/1/2 206/1/2
f 206/1/2 205/1/2 207/1/2
f 204/1/2 206/1/2 208/1/2
f 207/1/2 205/1/2 209/1/2
f 208/1/2 209/1/2 210/1/2
f 210/1/2 209/1/2 211/1/2
f 211/1/2 209/1/2 212/1/2
f 212/1/2 209/1/2 213/1/2
f 208/1/2 210/1/2 214/1/2
f 211/1/2 212/1/2 215/1/2
f 215/1/2 212/1/2 216/1/2
f 213/1/2 209/1/2 217/1/2
f 204/1/2 208/1/2 218/1/2
f 216/1/2 217/1/2 218/1/2
f 215/1/2 216/1/2 218/1/2
f 208/1/2 214/1/2 218/1/2
f 214/1/2 215/1/2 218/1/2
f 218/1/2 217/1/2 219/1/2
f 217/1/2 209/1/2 220/1/2
f 219/1/2 217/1/2 220/1/2
f 209/1/2 205/1/2 221/1/2
f 220/1/2 209/1/2 221/1/2
f 204/1/2 218/1/2 222/1/2
f 219/1/2 220/1/2 223/1/2
f 223/1/2 220/1/2 224/1/2
f 221/1/2 205/1/2 225/1/2
f 223/1/2 224/1/2 227/1/2
f 224/1/2 225/1/2 227/1/2
f 204/1/2 222/1/2 227/1/2
f 222/1/2 223/1/2 227/1/2
f 227/1/2 225/1/2 228/1/2
f 225/1/2 205/1/2 229/1/2
f 228/1/2 225/1/2 229/1/2
f 229/1/2 205/1/2 230/1/2
f 228/1/2 229/1/2 231/1/2
f 231/1/2 229/1/2 232/1/2
f 232/1/2 229/1/2 233/1/2
f 233/1/2 229/1/2 234/1/2
f 232/1/2 233/1/2 237/1/2
f 237/1/2 233/1/2 238/1/2
f 238/1/2 233/1/2 239/1/2
f 239/1/2 233/1/2 240/1/2
f 238/1/2 239/1/2 241/1/2
f 241/1/2 239/1/2 242/1/2
f 242/1/2 239/1/2 243/1/2
f 243/1/2 239/1/2 244/1/2
f 242/1/2 243/1/2 245/1/2
f 245/1/2 243/1/2 246/1/2
f 246/1/2 243/1/2 247/1/2
f 247/1/2 243/1/2 248/1/2
f 246/1/2 247/1/2 249/1/2
f 249/1/2 247/1/2 250/1/2
f 226/3/2 227/3/2 251/3/2
f 251/3/2 227/3/2 252/3/2
f 235/3/2 236/3/2 253/3/2
f 253/3/2 236/3/2 254/3/2
f 252/3/2 253/3/2 255/3/2
f 255/3/2 253/3/2 256/3/2
f 256/3/2 253/3/2 257/3/2
f 257/3/2 253/3/2 258/3/2
f 256/3/2 257/3/2 259/3/2
f 259/3/2 257/3/2 260/3/2
f 261/3/2 262/3/2 263/3/2
f 263/3/2 262/3/2 264/3/2
f 265/3/2 266/3/2 269/3/2
f 269/3/2 266/3/2 270/3/2
f 267/3/2 268/3/2 271/3/2
f 271/3/2 268/3/2 272/3/2
f 273/3/2 274/3/2 277/3/2
f 277/3/2 274/3/2 278/3/2
f 275/3/2 276/3/2 279/3/2
f 279/3/2 276/3/2 280/3/2
f 281/3/2 282/3/2 285/3/2
f 283/3/2 284/3/2 288/3/2
f 288/3/2 284/3/2 289/3/2
f 289/3/2 284/3/2 290/3/2
f 285/3/2 286/3/2 291/3/2
f 287/3/2 288/3/2 294/3/2
f 288/3/2 289/3/2 294/3/2
f 291/3/2 292/3/2 295/3/2
f 293/3/2 294/3/2 298/3/2
f 295/3/2 296/3/2 299/3/2
f 285/3/2 291/3/2 299/3/2
f 291/3/2 295/3/2 299/3/2
f 299/3/2 296/3/2 300/3/2
f 300/3/2 296/3/2 301/3/2
f 297/3/2 298/3/2 304/3/2
f 301/3/2 302/3/2 305/3/2
f 300/3/2 301/3/2 305/3/2
f 303/3/2 304/3/2 306/3/2
f 300/3/2 305/3/2 307/3/2
f 305/3/2 306/3/2 307/3/2
f 307/3/2 306/3/2 308/3/2
f 308/3/2 306/3/2 310/3/2
f 281/3/2 285/3/2 311/3/2
f 285/3/2 299/3/2 311/3/2
f 311/3/2 299/3/2 312/3/2
f 300/3/2 307/3/2 313/3/2
f 313/3/2 307/3/2 314/3/2
f 309/3/2 310/3/2 315/3/2
f 306/3/2 304/3/2 316/3/2
f 315/3/2 310/3/2 316/3/2
f 298/3/2 294/3/2 316/3/2
f 294/3/2 289/3/2 316/3/2
f 310/3/2 306/3/2 316/3/2
f 304/3/2 298/3/2 316/3/2
f 319/3/2 320/3/2 321/3/2
f 321/3/2 320/3/2 322/3/2
f 317/3/2 318/3/2 323/3/2
f 323/3/2 318/3/2 324/3/2
f 319/3/2 321/3/2 325/3/2
f 325/3/2 321/3/2 326/3/2
f 329/3/3 328/3/3 327/3/3
f 330/3/3 328/3/3 329/3/3
f 331/3/3 328/3/3 330/3/3
f 332/3/3 328/3/3 331/3/3
f 333/3/3 328/3/3 332/3/3
f 334/3/3 328/3/3 333/3/3
f 335/3/3 328/3/3 334/3/3
f 336/3/3 328/3/3 335/3/3
f 337/3/3 328/3/3 336/3/3
f 338/3/3 328/3/3 337/3/3
f 341/3/3 340/3/3 339/3/3
f 342/3/3 340/3/3 341/3/3
f 345/3/3 340/3/3 342/3/3
f 346/3/3 340/3/3 345/3/3
f 347/3/3 340/3/3 346/3/3
f 348/3/3 340/3/3 347/3/3
f 349/3/3 340/3/3 348/3/3
f 350/3/3 340/3/3 349/3/3
f 351/3/3 340/3/3 350/3/3
f 352/3/3 340/3/3 351/3/3
f 353/3/3 351/3/3 350/3/3
f 355/1/3 344/1/3 343/1/3
f 356/1/3 344/1/3 355/1/3
f 357/3/3 354/3/3 353/3/3
f 357/3/3 353/3/3 350/3/3
f 358/3/3 354/3/3 357/3/3
f 359/3/3 354/3/3 358/3/3
f 361/3/3 360/3/3 359/3/3
f 361/3/3 359/3/3 358/3/3
f 362/3/3 360/3/3 361/3/3
f 363/3/3 360/3/3 362/3/3
f 365/3/3 363/3/3 362/3/3
f 365/3/3 364/3/3 363/3/3
f 366/3/3 364/3/3 365/3/3
f 367/3/3 364/3/3 366/3/3
f 369/3/3 368/3/3 367/3/3
f 369/3/3 367/3/3 366/3/3
f 370/3/3 368/3/3 369/3/3
f 371/3/3 368/3/3 370/3/3
f 372/3/3 340/3/3 352/3/3
f 373/3/3 371/3/3 370/3/3
f 373/3/3 372/3/3 371/3/3
f 374/3/3 372/3/3 373/3/3
f 375/3/3 372/3/3 374/3/3
f 376/3/3 372/3/3 375/3/3
f 377/3/3 372/3/3 376/3/3
f 378/3/3 340/3/3 372/3/3
f 378/3/3 372/3/3 377/3/3
f 382/3/3 380/3/3 379/3/3
f 383/3/3 380/3/3 382/3/3
f 385/3/3 382/3/3 381/3/3
f 386/3/3 382/3/3 385/3/3
f 389/1/3 388/1/3 387/1/3
f 390/1/3 388/1/3 389/1/3
f 392/1/3 391/1/3 390/1/3
f 394/1/3 393/1/3 392/1/3
f 396/1/3 390/1/3 389/1/3
f 396/1/3 395/1/3 394/1/3
f 396/1/3 394/1/3 392/1/3
f 396/1/3 392/1/3 390/1/3
f 397/1/3 395/1/3 396/1/3
f 399/1/3 397/1/3 396/1/3
f 399/1/3 398/1/3 397/1/3
f 401/1/3 400/1/3 399/1/3
f 403/1/3 402/1/3 401/1/3
f 405/1/3 404/1/3 403/1/3
f 407/1/3 406/1/3 405/1/3
f 409/1/3 399/1/3 396/1/3
f 409/1/3 408/1/3 407/1/3
f 409/1/3 407/1/3 405/1/3
f 409/1/3 405/1/3 403/1/3
f 409/1/3 403/1/3 401/1/3
f 409/1/3 401/1/3 399/1/3
f 410/1/3 408/1/3 409/1/3
f 411/3/3 384/3/3 383/3/3
f 412/3/3 384/3/3 411/3/3
f 413/3/3 411/3/3 410/3/3
f 414/3/3 411/3/3 413/3/3
f 417/3/3 416/3/3 415/3/3
f 418/3/3 416/3/3 417/3/3
f 421/1/3 420/1/3 419/1/3
f 422/1/3 420/1/3 421/1/3
f 425/1/3 424/1/3 423/1/3
f 426/1/3 424/1/3 425/1/3
f 429/3/3 428/3/3 427/3/3
f 430/3/3 428/3/3 429/3/3
f 433/1/3 432/1/3 431/1/3
f 434/1/3 432/1/3 433/1/3
f 435/1/3 433/1/3 431/1/3
f 437/1/3 435/1/3 431/1/3
f 437/1/3 436/1/3 435/1/3
f 438/1/3 436/1/3 437/1/3
f 441/3/3 440/3/3 439/3/3
f 442/3/3 440/3/3 441/3/3
f 445/2/3 444/2/3 443/2/3
f 446/2/3 444/2/3 445/2/3
f 449/3/3 448/3/3 447/3/3
f 450/3/3 448/3/3 449/3/3
f 453/3/3 452/3/3 451/3/3
f 454/3/3 452/3/3 453/3/3
f 457/3/3 456/3/3 455/3/3
f 458/3/3 456/3/3 457/3/3
f 461/3/3 460/3/3 459/3/3
f 462/3/3 460/3/3 461/3/3
f 465/3/3 464/3/3 463/3/3
f 466/3/3 464/3/3 465/3/3
f 469/1/3 468/1/3 467/1/3
f 470/1/3 468/1/3 469/1/3
f 473/3/3 472/3/3 471/3/3
f 474/3/3 472/3/3 473/3/3
f 477/3/3 476/3/3 475/3/3
f 478/3/3 476/3/3 477/3/3
f 481/2/3 480/2/3 479/2/3
f 482/2/3 480/2/3 481/2/3
f 485/3/3 484/3/3 483/3/3
f 486/3/3 484/3/3 485/3/3
f 489/3/3 488/3/3 487/3/3
f 490/3/3 488/3/3 489/3/3
f 493/3/3 492/3/3 491/3/3
f 494/3/3 492/3/3 493/3/3
f 497/3/3 496/3/3 495/3/3
f 498/3/3 496/3/3 497/3/3
f 499/3/4 500/3/4 501/3/4
f 501/3/4 500/3/4 502/3/4
f 503/3/4 504/3/4 505/3/4
f 505/3/4 504/3/4 506/3/4
f 507/3/4 508/3/4 509/3/4
f 509/3/4 508/3/4 510/3/4
f 511/3/4 512/3/4 513/3/4
f 513/3/4 512/3/4 514/3/4
f 515/2/4 516/2/4 517/2/4
f 517/2/4 516/2/4 518/2/4
f 519/3/4 520/3/4 521/3/4
f 521/3/4 520/3/4 522/3/4
f 523/3/4 524/3/4 527/3/4
f 527/3/4 524/3/4 528/3/4
f 525/3/4 526/3/4 529/3/4
f 529/3/4 526/3/4 530/3/4
f 531/1/4 532/1/4 533/1/4
f 533/1/4 532/1/4 534/1/4
f 535/3/4 536/3/4 537/3/4
f 537/3/4 536/3/4 538/3/4
f 539/3/4 540/3/4 541/3/4
f 541/3/4 540/3/4 542/3/4
f 543/3/4 544/3/4 545/3/4
f 545/3/4 544/3/4 546/3/4
f 547/3/4 548/3/4 549/3/4
f 549/3/4 548/3/4 550/3/4
f 551/3/4 552/3/4 553/3/4
f 553/3/4 552/3/4 554/3/4
f 555/3/4 556/3/4 557/3/4
f 557/3/4 556/3/4 558/3/4
f 559/2/4 560/2/4 561/2/4
f 561/2/4 560/2/4 562/2/4
f 563/1/4 564/1/4 565/1/4
f 565/1/4 564/1/4 566/1/4
f 563/1/4 565/1/4 567/1/4
f 563/1/4 567/1/4 569/1/4
f 567/1/4 568/1/4 569/1/4
f 569/1/4 568/1/4 570/1/4
f 571/3/4 572/3/4 573/3/4
f 573/3/4 572/3/4 574/3/4
f 575/1/4 576/1/4 577/1/4
f 577/1/4 576/1/4 578/1/4
f 579/1/4 580/1/4 581/1/4
f 581/1/4 580/1/4 582/1/4
f 583/3/4 584/3/4 585/3/4
f 585/3/4 584/3/4 586/3/4
f 587/3/4 588/3/4 590/3/4
f 590/3/4 588/3/4 591/3/4
f 589/3/4 590/3/4 593/3/4
f 593/3/4 590/3/4 594/3/4
f 594/1/4 595/1/4 596/1/4
f 594/1/4 596/1/4 598/1/4
f 596/1/4 597/1/4 598/1/4
f 598/1/4 597/1/4 599/1/4
f 599/1/4 600/1/4 601/1/4
f 598/1/4 599/1/4 603/1/4
f 601/1/4 602/1/4 603/1/4
f 599/1/4 601/1/4 603/1/4
f 603/1/4 602/1/4 604/1/4
f 603/1/4 604/1/4 606/1/4
f 604/1/4 605/1/4 606/1/4
f 606/1/4 607/1/4 608/1/4
f 608/1/4 609/1/4 610/1/4
f 610/1/4 611/1/4 612/1/4
f 612/1/4 613/1/4 614/1/4
f 603/1/4 606/1/4 616/1/4
f 614/1/4 615/1/4 616/1/4
f 612/1/4 614/1/4 616/1/4
f 610/1/4 612/1/4 616/1/4
f 608/1/4 610/1/4 616/1/4
f 606/1/4 608/1/4 616/1/4
f 616/1/4 615/1/4 617/1/4
f 591/3/4 592/3/4 619/3/4
f 619/3/4 592/3/4 620/3/4
f 618/3/4 619/3/4 621/3/4
f 621/3/4 619/3/4 622/3/4
f 623/3/4 624/3/4 625/3/4
f 625/3/4 624/3/4 626/3/4
f 626/3/4 624/3/4 627/3/4
f 627/3/4 624/3/4 628/3/4
f 628/3/4 624/3/4 631/3/4
f 631/3/4 624/3/4 632/3/4
f 632/3/4 624/3/4 633/3/4
f 633/3/4 624/3/4 634/3/4
f 629/1/4 630/1/4 635/1/4
f 635/1/4 630/1/4 636/1/4
f 634/3/4 624/3/4 637/3/4
f 637/3/4 624/3/4 638/3/4
f 638/3/4 624/3/4 639/3/4
f 639/3/4 624/3/4 640/3/4
f 640/3/4 624/3/4 641/3/4
f 641/3/4 624/3/4 642/3/4
f 642/3/4 624/3/4 643/3/4
f 643/3/4 624/3/4 644/3/4
f 644/3/4 624/3/4 645/3/4
f 645/3/4 624/3/4 646/3/4
f 646/3/4 624/3/4 647/3/4
f 647/3/4 624/3/4 648/3/4
f 648/3/4 624/3/4 649/3/4
f 649/3/4 624/3/4 650/3/4
f 648/3/4 649/3/4 651/3/4
f 651/3/4 649/3/4 652/3/4
f 655/1/5 654/1/5 653/1/5
f 656/1/5 654/1/5 655/1/5
f 659/1/5 658/1/5 657/1/5
f 660/1/5 658/1/5 659/1/5
f 663/1/5 662/1/5 661/1/5
f 664/1/5 662/1/5 663/1/5
f 667/1/5 666/1/5 665/1/5
f 668/1/5 666/1/5 667/1/5
f 673/1/5 670/1/5 669/1/5
f 674/1/5 670/1/5 673/1/5
f 675/1/5 672/1/5 671/1/5
f 676/1/5 672/1/5 675/1/5
f 677/1/5 673/1/5 669/1/5
f 678/1/5 672/1/5 676/1/5
f 679/1/5 677/1/5 669/1/5
f 679/1/5 678/1/5 677/1/5
f 680/1/5 672/1/5 678/1/5
f 680/1/5 678/1/5 679/1/5
f 681/1/5 679/1/5 669/1/5
f 684/1/5 672/1/5 680/1/5
f 685/1/5 682/1/5 681/1/5
f 685/1/5 681/1/5 669/1/5
f 686/1/5 682/1/5 685/1/5
f 687/1/5 684/1/5 683/1/5
f 688/1/5 672/1/5 684/1/5
f 688/1/5 684/1/5 687/1/5
f 691/3/5 690/3/5 689/3/5
f 692/3/5 690/3/5 691/3/5
f 695/2/5 694/2/5 693/2/5
f 696/2/5 694/2/5 695/2/5
f 699/2/5 698/2/5 697/2/5
f 700/2/5 698/2/5 699/2/5
f 703/3/5 702/3/5 701/3/5
f 704/3/5 702/3/5 703/3/5
f 708/3/5 706/3/5 705/3/5
f 709/3/5 706/3/5 708/3/5
f 710/3/5 706/3/5 709/3/5
f 714/1/5 710/1/5 709/1/5
f 714/1/5 711/1/5 710/1/5
f 715/1/5 711/1/5 714/1/5
f 716/1/5 713/1/5 712/1/5
f 717/1/5 713/1/5 716/1/5
f 718/1/5 714/1/5 709/1/5
f 721/1/5 713/1/5 717/1/5
f 722/3/5 708/3/5 707/3/5
f 723/3/5 708/3/5 722/3/5
f 724/1/5 719/1/5 718/1/5
f 724/1/5 718/1/5 709/1/5
f 725/1/5 719/1/5 724/1/5
f 726/1/5 721/1/5 720/1/5
f 727/1/5 713/1/5 721/1/5
f 727/1/5 721/1/5 726/1/5
f 728/3/5 724/3/5 723/3/5
f 729/3/5 724/3/5 728/3/5
f 732/3/5 731/3/5 730/3/5
f 733/3/5 731/3/5 732/3/5
f 736/3/5 735/3/5 734/3/5
f 737/3/5 735/3/5 736/3/5
f 740/3/5 739/3/5 738/3/5
f 741/3/5 739/3/5 740/3/5
f 744/3/5 743/3/5 742/3/5
f 745/3/5 743/3/5 744/3/5
f 748/3/5 747/3/5 746/3/5
f 749/3/5 747/3/5 748/3/5
f 752/3/5 751/3/5 750/3/5
f 753/3/5 751/3/5 752/3/5
f 756/3/5 755/3/5 754/3/5
f 757/3/5 755/3/5 756/3/5
f 760/3/5 759/3/5 758/3/5
f 761/3/5 759/3/5 760/3/5
f 764/3/5 763/3/5 762/3/5
f 765/3/5 763/3/5 764/3/5
f 768/3/5 767/3/5 766/3/5
f 769/3/5 767/3/5 768/3/5
f 772/3/5 771/3/5 770/3/5
f 773/3/5 771/3/5 772/3/5
f 776/3/5 775/3/5 774/3/5
f 777/3/5 775/3/5 776/3/5
f 780/3/5 779/3/5 778/3/5
f 781/3/5 779/3/5 780/3/5
f 784/3/5 783/3/5 782/3/5
f 785/3/5 783/3/5 784/3/5
f 788/3/5 787/3/5 786/3/5
f 789/3/5 787/3/5 788/3/5
f 792/3/5 791/3/5 790/3/5
f 793/3/5 791/3/5 792/3/5
f 796/3/5 795/3/5 794/3/5
f 797/3/5 795/3/5 796/3/5
f 800/3/5 799/3/5 798/3/5
f 801/3/5 799/3/5 800/3/5
f 804/3/5 803/3/5 802/3/5
f 805/3/5 803/3/5 804/3/5
f 808/3/5 807/3/5 806/3/5
f 809/3/5 807/3/5 808/3/5
f 812/3/5 811/3/5 810/3/5
f 813/3/5 811/3/5 812/3/5
f 816/3/5 815/3/5 814/3/5
f 817/3/5 815/3/5 816/3/5
f 820/3/5 819/3/5 818/3/5
f 821/3/5 819/3/5 820/3/5
f 824/3/5 823/3/5 822/3/5
f 825/3/5 823/3/5 824/3/5
f 828/3/5 827/3/5 826/3/5
f 829/3/5 827/3/5 828/3/5
f 832/3/5 831/3/5 830/3/5
f 833/3/5 831/3/5 832/3/5
f 836/3/5 835/3/5 834/3/5
f 837/3/5 835/3/5 836/3/5
f 840/3/5 839/3/5 838/3/5
f 841/3/5 839/3/5 840/3/5
f 844/3/5 843/3/5 842/3/5
f 845/3/5 843/3/5 844/3/5
f 847/3/5 846/3/5 845/3/5
f 848/3/5 846/3/5 847/3/5
f 852/3/5 850/3/5 849/3/5
f 853/3/5 852/3/5 851/3/5
f 854/3/5 850/3/5 852/3/5
f 854/3/5 852/3/5 853/3/5
f 857/3/5 856/3/5 855/3/5
f 858/3/5 856/3/5 857/3/5
f 861/3/5 860/3/5 859/3/5
f 862/3/5 860/3/5 861/3/5
f 865/3/5 864/3/5 863/3/5
f 866/3/5 864/3/5 865/3/5
f 869/3/5 868/3/5 867/3/5
f 870/3/5 868/3/5 869/3/5
f 873/3/5 872/3/5 871/3/5
f 874/3/5 872/3/5 873/3/5
f 877/3/5 876/3/5 875/3/5
f 878/3/5 876/3/5 877/3/5
f 881/3/5 880/3/5 879/3/5
f 882/3/5 880/3/5 881/3/5
f 885/3/5 884/3/5 883/3/5
f 886/3/5 884/3/5 885/3/5
f 889/3/5 888/3/5 887/3/5
f 890/3/5 888/3/5 889/3/5
f 893/3/5 892/3/5 891/3/5
f 894/3/5 892/3/5 893/3/5
f 897/3/5 896/3/5 895/3/5
f 898/3/5 896/3/5 897/3/5
f 899/3/6 900/3/6 901/3/6
f 901/3/6 900/3/6 902/3/6
f 903/2/6 904/2/6 905/2/6
f 905/2/6 904/2/6 906/2/6
f 907/2/6 908/2/6 909/2/6
f 909/2/6 908/2/6 910/2/6
f 911/1/6 912/1/6 913/1/6
f 913/1/6 912/1/6 914/1/6
f 915/1/6 916/1/6 917/1/6
f 917/1/6 916/1/6 918/1/6
f 919/3/6 920/3/6 921/3/6
f 921/3/6 920/3/6 922/3/6
f 923/3/6 924/3/6 925/3/6
f 925/3/6 924/3/6 926/3/6
f 927/3/6 928/3/6 929/3/6
f 929/3/6 928/3/6 930/3/6
f 931/3/6 932/3/6 933/3/6
f 933/3/6 932/3/6 934/3/6
f 935/3/6 936/3/6 937/3/6
f 937/3/6 936/3/6 938/3/6
f 939/3/6 940/3/6 941/3/6
f 941/3/6 940/3/6 942/3/6
f 943/3/6 944/3/6 945/3/6
f 945/3/6 944/3/6 946/3/6
f 947/3/6 948/3/6 949/3/6
f 949/3/6 948/3/6 950/3/6
f 951/3/6 952/3/6 954/3/6
f 954/3/6 952/3/6 955/3/6
f 955/3/6 956/3/6 957/3/6
f 955/3/6 957/3/6 959/3/6
f 957/3/6 958/3/6 959/3/6
f 959/3/6 958/3/6 960/3/6
f 955/3/6 959/3/6 961/3/6
f 955/3/6 961/3/6 963/3/6
f 961/3/6 962/3/6 963/3/6
f 963/3/6 962/3/6 964/3/6
f 953/3/6 954/3/6 965/3/6
f 965/3/6 954/3/6 966/3/6
f 955/3/6 963/3/6 967/3/6
f 967/3/6 963/3/6 968/3/6
f 966/3/6 967/3/6 969/3/6
f 969/3/6 967/3/6 970/3/6
f 971/3/6 972/3/6 973/3/6
f 973/3/6 972/3/6 974/3/6
f 971/3/6 973/3/6 975/3/6
f 971/3/6 975/3/6 977/3/6
f 975/3/6 976/3/6 977/3/6
f 977/3/6 976/3/6 978/3/6
f 979/3/6 980/3/6 981/3/6
f 981/3/6 980/3/6 982/3/6
