# MagicaVoxel @ Ephtracy

# group
o 

# material
mtllib Erow.mtl
usemtl palette

# normals
vn -1 0 0
vn 1 0 0
vn 0 0 1
vn 0 0 -1
vn 0 -1 0
vn 0 1 0

# texcoords
vt 0.115234 0.5
vt 0.119141 0.5
vt 0.958984 0.5
vt 0.966797 0.5

# verts
v -1.6 0.3 0.0999999
v -1.6 0.3 -2.38419e-07
v -1.6 0.4 0.0999999
v -1.6 0.4 -2.38419e-07
v -1.5 0.3 0.2
v -1.5 0.3 0.0999999
v -1.5 0.3 -2.38419e-07
v -1.5 0.3 -0.1
v -1.5 0.4 0.2
v -1.5 0.4 0.0999999
v -1.5 0.4 -2.38419e-07
v -1.5 0.4 -0.1
v -1.4 0.3 0.3
v -1.4 0.3 0.2
v -1.4 0.3 -0.1
v -1.4 0.3 -0.2
v -1.4 0.4 0.3
v -1.4 0.4 0.2
v -1.4 0.4 -0.1
v -1.4 0.4 -0.2
v -1.3 0.3 0.4
v -1.3 0.3 0.3
v -1.3 0.3 -0.2
v -1.3 0.3 -0.3
v -1.3 0.4 0.4
v -1.3 0.4 0.3
v -1.3 0.4 -0.2
v -1.3 0.4 -0.3
v -1.2 0.3 0.5
v -1.2 0.3 0.4
v -1.2 0.3 -0.3
v -1.2 0.3 -0.4
v -1.2 0.4 0.5
v -1.2 0.4 0.4
v -1.2 0.4 -0.3
v -1.2 0.4 -0.4
v -0.5 0 2
v -0.5 0 0.3
v -0.5 0 0.0999999
v -0.5 0 -0.2
v -0.5 0 -0.4
v -0.5 0 -2
v -0.5 0.3 2
v -0.5 0.3 0.3
v -0.5 0.3 0.0999999
v -0.5 0.3 -2.38419e-07
v -0.5 0.3 -0.2
v -0.5 0.3 -0.4
v -0.5 0.3 -2
v 0.4 0.1 1.7
v 0.4 0.1 1.4
v 0.4 0.1 -1.4
v 0.4 0.1 -1.7
v 0.4 0.2 1.7
v 0.4 0.2 1.4
v 0.4 0.2 -1.4
v 0.4 0.2 -1.7
v 0.5 0.1 1.4
v 0.5 0.1 1.2
v 0.5 0.1 -1.2
v 0.5 0.1 -1.4
v 0.5 0.2 1.4
v 0.5 0.2 1.2
v 0.5 0.2 -1.2
v 0.5 0.2 -1.4
v 0.6 0.1 1.2
v 0.6 0.1 1
v 0.6 0.1 -1
v 0.6 0.1 -1.2
v 0.6 0.2 1.2
v 0.6 0.2 1
v 0.6 0.2 -1
v 0.6 0.2 -1.2
v 0.7 0.1 1
v 0.7 0.1 0.8
v 0.7 0.1 -0.8
v 0.7 0.1 -1
v 0.7 0.2 1
v 0.7 0.2 0.8
v 0.7 0.2 -0.8
v 0.7 0.2 -1
v 0.8 0.1 0.8
v 0.8 0.1 0.6
v 0.8 0.1 -0.6
v 0.8 0.1 -0.8
v 0.8 0.2 0.8
v 0.8 0.2 0.6
v 0.8 0.2 -0.6
v 0.8 0.2 -0.8
v 0.9 0.1 0.6
v 0.9 0.1 0.4
v 0.9 0.1 -0.4
v 0.9 0.1 -0.6
v 0.9 0.2 0.6
v 0.9 0.2 0.4
v 0.9 0.2 -0.4
v 0.9 0.2 -0.6
v 1 0.1 0.4
v 1 0.1 0.2
v 1 0.1 -0.2
v 1 0.1 -0.4
v 1 0.2 0.4
v 1 0.2 0.2
v 1 0.2 -0.2
v 1 0.2 -0.4
v 1.1 0.1 0.2
v 1.1 0.1 -0.2
v 1.1 0.2 0.2
v 1.1 0.2 -0.2
v 1.2 0.3 0.2
v 1.2 0.3 0.0999999
v 1.2 0.3 -2.38419e-07
v 1.2 0.3 -0.1
v 1.2 0.4 0.2
v 1.2 0.4 0.0999999
v 1.2 0.4 -2.38419e-07
v 1.2 0.4 -0.1
v 1.3 0.3 0.3
v 1.3 0.3 0.2
v 1.3 0.3 -0.1
v 1.3 0.3 -0.2
v 1.3 0.4 0.3
v 1.3 0.4 0.2
v 1.3 0.4 -0.1
v 1.3 0.4 -0.2
v 1.5 0.3 0.4
v 1.5 0.3 0.3
v 1.5 0.3 -0.2
v 1.5 0.3 -0.3
v 1.5 0.4 0.4
v 1.5 0.4 0.3
v 1.5 0.4 -0.2
v 1.5 0.4 -0.3
v -1 0.3 0.5
v -1 0.3 0.4
v -1 0.3 0.2
v -1 0.3 0.0999999
v -1 0.3 -2.38419e-07
v -1 0.3 -0.1
v -1 0.3 -0.3
v -1 0.3 -0.4
v -1 0.4 0.5
v -1 0.4 0.4
v -1 0.4 0.2
v -1 0.4 0.0999999
v -1 0.4 -2.38419e-07
v -1 0.4 -0.1
v -1 0.4 -0.3
v -1 0.4 -0.4
v -0.9 0.3 0.4
v -0.9 0.3 0.2
v -0.9 0.3 -0.1
v -0.9 0.3 -0.3
v -0.9 0.4 0.4
v -0.9 0.4 0.2
v -0.9 0.4 -0.1
v -0.9 0.4 -0.3
v -0.2 0 1.7
v -0.2 0 0.3
v -0.2 0 0.0999999
v -0.2 0 -0.2
v -0.2 0 -0.4
v -0.2 0 -1.7
v -0.2 0.3 1.7
v -0.2 0.3 0.3
v -0.2 0.3 0.0999999
v -0.2 0.3 -2.38419e-07
v -0.2 0.3 -0.2
v -0.2 0.3 -0.4
v -0.2 0.3 -1.7
v 0.5 0 2
v 0.5 0 1.7
v 0.5 0 -1.7
v 0.5 0 -2
v 0.5 0.1 1.7
v 0.5 0.1 1.5
v 0.5 0.1 -1.5
v 0.5 0.1 -1.7
v 0.5 0.2 1.7
v 0.5 0.2 1.5
v 0.5 0.2 -1.5
v 0.5 0.2 -1.7
v 0.5 0.3 2
v 0.5 0.3 1.7
v 0.5 0.3 -1.7
v 0.5 0.3 -2
v 0.6 0.1 1.5
v 0.6 0.1 1.3
v 0.6 0.1 -1.3
v 0.6 0.1 -1.5
v 0.6 0.2 1.5
v 0.6 0.2 1.3
v 0.6 0.2 -1.3
v 0.6 0.2 -1.5
v 0.7 0.1 1.3
v 0.7 0.1 1.1
v 0.7 0.1 -1.1
v 0.7 0.1 -1.3
v 0.7 0.2 1.3
v 0.7 0.2 1.1
v 0.7 0.2 -1.1
v 0.7 0.2 -1.3
v 0.8 0.1 1.1
v 0.8 0.1 0.9
v 0.8 0.1 -0.9
v 0.8 0.1 -1.1
v 0.8 0.2 1.1
v 0.8 0.2 0.9
v 0.8 0.2 -0.9
v 0.8 0.2 -1.1
v 0.9 0.1 0.9
v 0.9 0.1 0.7
v 0.9 0.1 -0.7
v 0.9 0.1 -0.9
v 0.9 0.2 0.9
v 0.9 0.2 0.7
v 0.9 0.2 -0.7
v 0.9 0.2 -0.9
v 1 0.1 0.7
v 1 0.1 0.5
v 1 0.1 -0.5
v 1 0.1 -0.7
v 1 0.2 0.7
v 1 0.2 0.5
v 1 0.2 -0.5
v 1 0.2 -0.7
v 1.1 0.1 0.5
v 1.1 0.1 0.3
v 1.1 0.1 -0.3
v 1.1 0.1 -0.5
v 1.1 0.2 0.5
v 1.1 0.2 0.3
v 1.1 0.2 -0.3
v 1.1 0.2 -0.5
v 1.2 0.1 0.3
v 1.2 0.1 -0.3
v 1.2 0.2 0.3
v 1.2 0.2 -0.3
v 1.7 0.3 0.3
v 1.7 0.3 0.0999999
v 1.7 0.3 -2.38419e-07
v 1.7 0.3 -0.2
v 1.7 0.4 0.3
v 1.7 0.4 0.0999999
v 1.7 0.4 -2.38419e-07
v 1.7 0.4 -0.2
v 1.8 0.3 0.4
v 1.8 0.3 0.3
v 1.8 0.3 -0.2
v 1.8 0.3 -0.3
v 1.8 0.4 0.4
v 1.8 0.4 0.3
v 1.8 0.4 -0.2
v 1.8 0.4 -0.3
v -0.5 0 2
v -0.5 0.3 2
v 0.5 0 2
v 0.5 0.3 2
v 0.5 0.1 1.5
v 0.5 0.2 1.5
v 0.6 0.1 1.5
v 0.6 0.2 1.5
v 0.6 0.1 1.3
v 0.6 0.2 1.3
v 0.7 0.1 1.3
v 0.7 0.2 1.3
v 0.7 0.1 1.1
v 0.7 0.2 1.1
v 0.8 0.1 1.1
v 0.8 0.2 1.1
v 0.8 0.1 0.9
v 0.8 0.2 0.9
v 0.9 0.1 0.9
v 0.9 0.2 0.9
v 0.9 0.1 0.7
v 0.9 0.2 0.7
v 1 0.1 0.7
v 1 0.2 0.7
v -1.2 0.3 0.5
v -1.2 0.4 0.5
v -1 0.3 0.5
v -1 0.4 0.5
v 1 0.1 0.5
v 1 0.2 0.5
v 1.1 0.1 0.5
v 1.1 0.2 0.5
v -1.3 0.3 0.4
v -1.3 0.4 0.4
v -1.2 0.3 0.4
v -1.2 0.4 0.4
v -1 0.3 0.4
v -1 0.4 0.4
v -0.9 0.3 0.4
v -0.9 0.4 0.4
v 1.5 0.3 0.4
v 1.5 0.4 0.4
v 1.8 0.3 0.4
v 1.8 0.4 0.4
v -1.4 0.3 0.3
v -1.4 0.4 0.3
v -1.3 0.3 0.3
v -1.3 0.4 0.3
v 1.1 0.1 0.3
v 1.1 0.2 0.3
v 1.2 0.1 0.3
v 1.2 0.2 0.3
v 1.3 0.3 0.3
v 1.3 0.4 0.3
v 1.5 0.3 0.3
v 1.5 0.4 0.3
v -1.5 0.3 0.2
v -1.5 0.4 0.2
v -1.4 0.3 0.2
v -1.4 0.4 0.2
v 1.2 0.3 0.2
v 1.2 0.4 0.2
v 1.3 0.3 0.2
v 1.3 0.4 0.2
v -1.6 0.3 0.0999999
v -1.6 0.4 0.0999999
v -1.5 0.3 0.0999999
v -1.5 0.4 0.0999999
v -1 0.3 0.0999999
v -1 0.4 0.0999999
v -0.5 0.3 0.0999999
v -0.2 0.3 0.0999999
v 1.2 0.3 0.0999999
v 1.2 0.4 0.0999999
v -1 0.3 -0.1
v -1 0.4 -0.1
v -0.9 0.3 -0.1
v -0.9 0.4 -0.1
v 1 0.1 -0.2
v 1 0.2 -0.2
v 1.1 0.1 -0.2
v 1.1 0.2 -0.2
v 1.7 0.3 -0.2
v 1.7 0.4 -0.2
v 1.8 0.3 -0.2
v 1.8 0.4 -0.2
v 0.9 0.1 -0.4
v 0.9 0.2 -0.4
v 1 0.1 -0.4
v 1 0.2 -0.4
v 0.8 0.1 -0.6
v 0.8 0.2 -0.6
v 0.9 0.1 -0.6
v 0.9 0.2 -0.6
v 0.7 0.1 -0.8
v 0.7 0.2 -0.8
v 0.8 0.1 -0.8
v 0.8 0.2 -0.8
v 0.6 0.1 -1
v 0.6 0.2 -1
v 0.7 0.1 -1
v 0.7 0.2 -1
v 0.5 0.1 -1.2
v 0.5 0.2 -1.2
v 0.6 0.1 -1.2
v 0.6 0.2 -1.2
v 0.4 0.1 -1.4
v 0.4 0.2 -1.4
v 0.5 0.1 -1.4
v 0.5 0.2 -1.4
v -0.2 0 -1.7
v -0.2 0.3 -1.7
v 0.4 0.1 -1.7
v 0.4 0.2 -1.7
v 0.5 0 -1.7
v 0.5 0.1 -1.7
v 0.5 0.2 -1.7
v 0.5 0.3 -1.7
v -0.2 0 1.7
v -0.2 0.3 1.7
v 0.4 0.1 1.7
v 0.4 0.2 1.7
v 0.5 0 1.7
v 0.5 0.1 1.7
v 0.5 0.2 1.7
v 0.5 0.3 1.7
v 0.4 0.1 1.4
v 0.4 0.2 1.4
v 0.5 0.1 1.4
v 0.5 0.2 1.4
v 0.5 0.1 1.2
v 0.5 0.2 1.2
v 0.6 0.1 1.2
v 0.6 0.2 1.2
v 0.6 0.1 1
v 0.6 0.2 1
v 0.7 0.1 1
v 0.7 0.2 1
v 0.7 0.1 0.8
v 0.7 0.2 0.8
v 0.8 0.1 0.8
v 0.8 0.2 0.8
v 0.8 0.1 0.6
v 0.8 0.2 0.6
v 0.9 0.1 0.6
v 0.9 0.2 0.6
v 0.9 0.1 0.4
v 0.9 0.2 0.4
v 1 0.1 0.4
v 1 0.2 0.4
v 1.7 0.3 0.3
v 1.7 0.4 0.3
v 1.8 0.3 0.3
v 1.8 0.4 0.3
v -1 0.3 0.2
v -1 0.4 0.2
v -0.9 0.3 0.2
v -0.9 0.4 0.2
v 1 0.1 0.2
v 1 0.2 0.2
v 1.1 0.1 0.2
v 1.1 0.2 0.2
v -1.6 0.3 -2.38419e-07
v -1.6 0.4 -2.38419e-07
v -1.5 0.3 -2.38419e-07
v -1.5 0.4 -2.38419e-07
v -1 0.3 -2.38419e-07
v -1 0.4 -2.38419e-07
v -0.5 0.3 -2.38419e-07
v -0.2 0.3 -2.38419e-07
v 1.2 0.3 -2.38419e-07
v 1.2 0.4 -2.38419e-07
v -1.5 0.3 -0.1
v -1.5 0.4 -0.1
v -1.4 0.3 -0.1
v -1.4 0.4 -0.1
v 1.2 0.3 -0.1
v 1.2 0.4 -0.1
v 1.3 0.3 -0.1
v 1.3 0.4 -0.1
v -1.4 0.3 -0.2
v -1.4 0.4 -0.2
v -1.3 0.3 -0.2
v -1.3 0.4 -0.2
v 1.3 0.3 -0.2
v 1.3 0.4 -0.2
v 1.5 0.3 -0.2
v 1.5 0.4 -0.2
v -1.3 0.3 -0.3
v -1.3 0.4 -0.3
v -1.2 0.3 -0.3
v -1.2 0.4 -0.3
v -1 0.3 -0.3
v -1 0.4 -0.3
v -0.9 0.3 -0.3
v -0.9 0.4 -0.3
v 1.1 0.1 -0.3
v 1.1 0.2 -0.3
v 1.2 0.1 -0.3
v 1.2 0.2 -0.3
v 1.5 0.3 -0.3
v 1.5 0.4 -0.3
v 1.8 0.3 -0.3
v 1.8 0.4 -0.3
v -1.2 0.3 -0.4
v -1.2 0.4 -0.4
v -1 0.3 -0.4
v -1 0.4 -0.4
v 1 0.1 -0.5
v 1 0.2 -0.5
v 1.1 0.1 -0.5
v 1.1 0.2 -0.5
v 0.9 0.1 -0.7
v 0.9 0.2 -0.7
v 1 0.1 -0.7
v 1 0.2 -0.7
v 0.8 0.1 -0.9
v 0.8 0.2 -0.9
v 0.9 0.1 -0.9
v 0.9 0.2 -0.9
v 0.7 0.1 -1.1
v 0.7 0.2 -1.1
v 0.8 0.1 -1.1
v 0.8 0.2 -1.1
v 0.6 0.1 -1.3
v 0.6 0.2 -1.3
v 0.7 0.1 -1.3
v 0.7 0.2 -1.3
v 0.5 0.1 -1.5
v 0.5 0.2 -1.5
v 0.6 0.1 -1.5
v 0.6 0.2 -1.5
v -0.5 0 -2
v -0.5 0.3 -2
v 0.5 0 -2
v 0.5 0.3 -2
v -0.5 0 2
v 0.5 0 2
v -0.2 0 1.7
v 0.5 0 1.7
v -0.5 0 0.3
v -0.2 0 0.3
v -0.5 0 0.0999999
v -0.2 0 0.0999999
v -0.5 0 -0.2
v -0.2 0 -0.2
v -0.5 0 -0.4
v -0.2 0 -0.4
v -0.2 0 -1.7
v 0.5 0 -1.7
v -0.5 0 -2
v 0.5 0 -2
v 0.4 0.1 1.7
v 0.5 0.1 1.7
v 0.5 0.1 1.5
v 0.6 0.1 1.5
v 0.4 0.1 1.4
v 0.5 0.1 1.4
v 0.6 0.1 1.3
v 0.7 0.1 1.3
v 0.5 0.1 1.2
v 0.6 0.1 1.2
v 0.7 0.1 1.1
v 0.8 0.1 1.1
v 0.6 0.1 1
v 0.7 0.1 1
v 0.8 0.1 0.9
v 0.9 0.1 0.9
v 0.7 0.1 0.8
v 0.8 0.1 0.8
v 0.9 0.1 0.7
v 1 0.1 0.7
v 0.8 0.1 0.6
v 0.9 0.1 0.6
v 1 0.1 0.5
v 1.1 0.1 0.5
v 0.9 0.1 0.4
v 1 0.1 0.4
v 1.1 0.1 0.3
v 1.2 0.1 0.3
v 1 0.1 0.2
v 1.1 0.1 0.2
v 1 0.1 -0.2
v 1.1 0.1 -0.2
v 1.1 0.1 -0.3
v 1.2 0.1 -0.3
v 0.9 0.1 -0.4
v 1 0.1 -0.4
v 1 0.1 -0.5
v 1.1 0.1 -0.5
v 0.8 0.1 -0.6
v 0.9 0.1 -0.6
v 0.9 0.1 -0.7
v 1 0.1 -0.7
v 0.7 0.1 -0.8
v 0.8 0.1 -0.8
v 0.8 0.1 -0.9
v 0.9 0.1 -0.9
v 0.6 0.1 -1
v 0.7 0.1 -1
v 0.7 0.1 -1.1
v 0.8 0.1 -1.1
v 0.5 0.1 -1.2
v 0.6 0.1 -1.2
v 0.6 0.1 -1.3
v 0.7 0.1 -1.3
v 0.4 0.1 -1.4
v 0.5 0.1 -1.4
v 0.5 0.1 -1.5
v 0.6 0.1 -1.5
v 0.4 0.1 -1.7
v 0.5 0.1 -1.7
v -1.2 0.3 0.5
v -1 0.3 0.5
v -1.3 0.3 0.4
v -1.2 0.3 0.4
v -1 0.3 0.4
v -0.9 0.3 0.4
v 1.5 0.3 0.4
v 1.8 0.3 0.4
v -1.4 0.3 0.3
v -1.3 0.3 0.3
v 1.3 0.3 0.3
v 1.5 0.3 0.3
v 1.7 0.3 0.3
v 1.8 0.3 0.3
v -1.5 0.3 0.2
v -1.4 0.3 0.2
v -1 0.3 0.2
v -0.9 0.3 0.2
v 1.2 0.3 0.2
v 1.3 0.3 0.2
v -1.6 0.3 0.0999999
v -1.5 0.3 0.0999999
v -1 0.3 0.0999999
v -0.5 0.3 0.0999999
v -0.2 0.3 0.0999999
v 1.2 0.3 0.0999999
v 1.7 0.3 0.0999999
v -1.6 0.3 -2.38419e-07
v -1.5 0.3 -2.38419e-07
v -1 0.3 -2.38419e-07
v -0.5 0.3 -2.38419e-07
v -0.2 0.3 -2.38419e-07
v 1.2 0.3 -2.38419e-07
v 1.7 0.3 -2.38419e-07
v -1.5 0.3 -0.1
v -1.4 0.3 -0.1
v -1 0.3 -0.1
v -0.9 0.3 -0.1
v 1.2 0.3 -0.1
v 1.3 0.3 -0.1
v -1.4 0.3 -0.2
v -1.3 0.3 -0.2
v 1.3 0.3 -0.2
v 1.5 0.3 -0.2
v 1.7 0.3 -0.2
v 1.8 0.3 -0.2
v -1.3 0.3 -0.3
v -1.2 0.3 -0.3
v -1 0.3 -0.3
v -0.9 0.3 -0.3
v 1.5 0.3 -0.3
v 1.8 0.3 -0.3
v -1.2 0.3 -0.4
v -1 0.3 -0.4
v 0.4 0.2 1.7
v 0.5 0.2 1.7
v 0.5 0.2 1.5
v 0.6 0.2 1.5
v 0.4 0.2 1.4
v 0.5 0.2 1.4
v 0.6 0.2 1.3
v 0.7 0.2 1.3
v 0.5 0.2 1.2
v 0.6 0.2 1.2
v 0.7 0.2 1.1
v 0.8 0.2 1.1
v 0.6 0.2 1
v 0.7 0.2 1
v 0.8 0.2 0.9
v 0.9 0.2 0.9
v 0.7 0.2 0.8
v 0.8 0.2 0.8
v 0.9 0.2 0.7
v 1 0.2 0.7
v 0.8 0.2 0.6
v 0.9 0.2 0.6
v 1 0.2 0.5
v 1.1 0.2 0.5
v 0.9 0.2 0.4
v 1 0.2 0.4
v 1.1 0.2 0.3
v 1.2 0.2 0.3
v 1 0.2 0.2
v 1.1 0.2 0.2
v 1 0.2 -0.2
v 1.1 0.2 -0.2
v 1.1 0.2 -0.3
v 1.2 0.2 -0.3
v 0.9 0.2 -0.4
v 1 0.2 -0.4
v 1 0.2 -0.5
v 1.1 0.2 -0.5
v 0.8 0.2 -0.6
v 0.9 0.2 -0.6
v 0.9 0.2 -0.7
v 1 0.2 -0.7
v 0.7 0.2 -0.8
v 0.8 0.2 -0.8
v 0.8 0.2 -0.9
v 0.9 0.2 -0.9
v 0.6 0.2 -1
v 0.7 0.2 -1
v 0.7 0.2 -1.1
v 0.8 0.2 -1.1
v 0.5 0.2 -1.2
v 0.6 0.2 -1.2
v 0.6 0.2 -1.3
v 0.7 0.2 -1.3
v 0.4 0.2 -1.4
v 0.5 0.2 -1.4
v 0.5 0.2 -1.5
v 0.6 0.2 -1.5
v 0.4 0.2 -1.7
v 0.5 0.2 -1.7
v -0.5 0.3 2
v 0.5 0.3 2
v -0.2 0.3 1.7
v 0.5 0.3 1.7
v -0.5 0.3 0.3
v -0.2 0.3 0.3
v -0.5 0.3 0.0999999
v -0.2 0.3 0.0999999
v -0.5 0.3 -2.38419e-07
v -0.2 0.3 -2.38419e-07
v -0.5 0.3 -0.2
v -0.2 0.3 -0.2
v -0.5 0.3 -0.4
v -0.2 0.3 -0.4
v -0.2 0.3 -1.7
v 0.5 0.3 -1.7
v -0.5 0.3 -2
v 0.5 0.3 -2
v -1.2 0.4 0.5
v -1 0.4 0.5
v -1.3 0.4 0.4
v -1.2 0.4 0.4
v -1 0.4 0.4
v -0.9 0.4 0.4
v 1.5 0.4 0.4
v 1.8 0.4 0.4
v -1.4 0.4 0.3
v -1.3 0.4 0.3
v 1.3 0.4 0.3
v 1.5 0.4 0.3
v 1.7 0.4 0.3
v 1.8 0.4 0.3
v -1.5 0.4 0.2
v -1.4 0.4 0.2
v -1 0.4 0.2
v -0.9 0.4 0.2
v 1.2 0.4 0.2
v 1.3 0.4 0.2
v -1.6 0.4 0.0999999
v -1.5 0.4 0.0999999
v -1 0.4 0.0999999
v 1.2 0.4 0.0999999
v 1.7 0.4 0.0999999
v -1.6 0.4 -2.38419e-07
v -1.5 0.4 -2.38419e-07
v -1 0.4 -2.38419e-07
v 1.2 0.4 -2.38419e-07
v 1.7 0.4 -2.38419e-07
v -1.5 0.4 -0.1
v -1.4 0.4 -0.1
v -1 0.4 -0.1
v -0.9 0.4 -0.1
v 1.2 0.4 -0.1
v 1.3 0.4 -0.1
v -1.4 0.4 -0.2
v -1.3 0.4 -0.2
v 1.3 0.4 -0.2
v 1.5 0.4 -0.2
v 1.7 0.4 -0.2
v 1.8 0.4 -0.2
v -1.3 0.4 -0.3
v -1.2 0.4 -0.3
v -1 0.4 -0.3
v -0.9 0.4 -0.3
v 1.5 0.4 -0.3
v 1.8 0.4 -0.3
v -1.2 0.4 -0.4
v -1 0.4 -0.4

# faces
f 3/2/1 2/2/1 1/2/1
f 4/2/1 2/2/1 3/2/1
f 9/2/1 6/2/1 5/2/1
f 10/2/1 6/2/1 9/2/1
f 11/2/1 8/2/1 7/2/1
f 12/2/1 8/2/1 11/2/1
f 17/2/1 14/2/1 13/2/1
f 18/2/1 14/2/1 17/2/1
f 19/2/1 16/2/1 15/2/1
f 20/2/1 16/2/1 19/2/1
f 25/2/1 22/2/1 21/2/1
f 26/2/1 22/2/1 25/2/1
f 27/2/1 24/2/1 23/2/1
f 28/2/1 24/2/1 27/2/1
f 33/2/1 30/2/1 29/2/1
f 34/2/1 30/2/1 33/2/1
f 35/2/1 32/2/1 31/2/1
f 36/2/1 32/2/1 35/2/1
f 43/1/1 38/1/1 37/1/1
f 44/4/1 39/4/1 38/4/1
f 44/1/1 38/1/1 43/1/1
f 45/1/1 40/1/1 39/1/1
f 45/4/1 39/4/1 44/4/1
f 46/1/1 40/1/1 45/1/1
f 47/4/1 41/4/1 40/4/1
f 47/1/1 40/1/1 46/1/1
f 48/1/1 42/1/1 41/1/1
f 48/4/1 41/4/1 47/4/1
f 49/1/1 42/1/1 48/1/1
f 54/3/1 51/3/1 50/3/1
f 55/3/1 51/3/1 54/3/1
f 56/3/1 53/3/1 52/3/1
f 57/3/1 53/3/1 56/3/1
f 62/3/1 59/3/1 58/3/1
f 63/3/1 59/3/1 62/3/1
f 64/3/1 61/3/1 60/3/1
f 65/3/1 61/3/1 64/3/1
f 70/3/1 67/3/1 66/3/1
f 71/3/1 67/3/1 70/3/1
f 72/3/1 69/3/1 68/3/1
f 73/3/1 69/3/1 72/3/1
f 78/3/1 75/3/1 74/3/1
f 79/3/1 75/3/1 78/3/1
f 80/3/1 77/3/1 76/3/1
f 81/3/1 77/3/1 80/3/1
f 86/3/1 83/3/1 82/3/1
f 87/3/1 83/3/1 86/3/1
f 88/3/1 85/3/1 84/3/1
f 89/3/1 85/3/1 88/3/1
f 94/3/1 91/3/1 90/3/1
f 95/3/1 91/3/1 94/3/1
f 96/3/1 93/3/1 92/3/1
f 97/3/1 93/3/1 96/3/1
f 102/3/1 99/3/1 98/3/1
f 103/3/1 99/3/1 102/3/1
f 104/3/1 101/3/1 100/3/1
f 105/3/1 101/3/1 104/3/1
f 108/3/1 107/3/1 106/3/1
f 109/3/1 107/3/1 108/3/1
f 114/2/1 111/2/1 110/2/1
f 115/2/1 111/2/1 114/2/1
f 116/2/1 113/2/1 112/2/1
f 117/2/1 113/2/1 116/2/1
f 122/2/1 119/2/1 118/2/1
f 123/2/1 119/2/1 122/2/1
f 124/2/1 121/2/1 120/2/1
f 125/2/1 121/2/1 124/2/1
f 130/2/1 127/2/1 126/2/1
f 131/2/1 127/2/1 130/2/1
f 132/2/1 129/2/1 128/2/1
f 133/2/1 129/2/1 132/2/1
f 134/2/2 135/2/2 142/2/2
f 142/2/2 135/2/2 143/2/2
f 136/2/2 137/2/2 144/2/2
f 144/2/2 137/2/2 145/2/2
f 138/2/2 139/2/2 146/2/2
f 146/2/2 139/2/2 147/2/2
f 140/2/2 141/2/2 148/2/2
f 148/2/2 141/2/2 149/2/2
f 150/2/2 151/2/2 154/2/2
f 154/2/2 151/2/2 155/2/2
f 152/2/2 153/2/2 156/2/2
f 156/2/2 153/2/2 157/2/2
f 158/1/2 159/1/2 164/1/2
f 159/4/2 160/4/2 165/4/2
f 164/1/2 159/1/2 165/1/2
f 160/1/2 161/1/2 166/1/2
f 165/4/2 160/4/2 166/4/2
f 166/1/2 161/1/2 167/1/2
f 161/4/2 162/4/2 168/4/2
f 167/1/2 161/1/2 168/1/2
f 162/1/2 163/1/2 169/1/2
f 168/4/2 162/4/2 169/4/2
f 169/1/2 163/1/2 170/1/2
f 171/1/2 172/1/2 175/1/2
f 173/1/2 174/1/2 178/1/2
f 175/3/2 176/3/2 179/3/2
f 171/1/2 175/1/2 179/1/2
f 179/3/2 176/3/2 180/3/2
f 177/3/2 178/3/2 181/3/2
f 178/1/2 174/1/2 182/1/2
f 181/3/2 178/3/2 182/3/2
f 171/1/2 179/1/2 183/1/2
f 183/1/2 179/1/2 184/1/2
f 182/1/2 174/1/2 185/1/2
f 185/1/2 174/1/2 186/1/2
f 187/3/2 188/3/2 191/3/2
f 191/3/2 188/3/2 192/3/2
f 189/3/2 190/3/2 193/3/2
f 193/3/2 190/3/2 194/3/2
f 195/3/2 196/3/2 199/3/2
f 199/3/2 196/3/2 200/3/2
f 197/3/2 198/3/2 201/3/2
f 201/3/2 198/3/2 202/3/2
f 203/3/2 204/3/2 207/3/2
f 207/3/2 204/3/2 208/3/2
f 205/3/2 206/3/2 209/3/2
f 209/3/2 206/3/2 210/3/2
f 211/3/2 212/3/2 215/3/2
f 215/3/2 212/3/2 216/3/2
f 213/3/2 214/3/2 217/3/2
f 217/3/2 214/3/2 218/3/2
f 219/3/2 220/3/2 223/3/2
f 223/3/2 220/3/2 224/3/2
f 221/3/2 222/3/2 225/3/2
f 225/3/2 222/3/2 226/3/2
f 227/3/2 228/3/2 231/3/2
f 231/3/2 228/3/2 232/3/2
f 229/3/2 230/3/2 233/3/2
f 233/3/2 230/3/2 234/3/2
f 235/3/2 236/3/2 237/3/2
f 237/3/2 236/3/2 238/3/2
f 239/2/2 240/2/2 243/2/2
f 240/3/2 241/3/2 244/3/2
f 243/2/2 240/2/2 244/2/2
f 241/2/2 242/2/2 245/2/2
f 244/3/2 241/3/2 245/3/2
f 245/2/2 242/2/2 246/2/2
f 247/2/2 248/2/2 251/2/2
f 251/2/2 248/2/2 252/2/2
f 249/2/2 250/2/2 253/2/2
f 253/2/2 250/2/2 254/2/2
f 257/1/3 256/1/3 255/1/3
f 258/1/3 256/1/3 257/1/3
f 261/3/3 260/3/3 259/3/3
f 262/3/3 260/3/3 261/3/3
f 265/3/3 264/3/3 263/3/3
f 266/3/3 264/3/3 265/3/3
f 269/3/3 268/3/3 267/3/3
f 270/3/3 268/3/3 269/3/3
f 273/3/3 272/3/3 271/3/3
f 274/3/3 272/3/3 273/3/3
f 277/3/3 276/3/3 275/3/3
f 278/3/3 276/3/3 277/3/3
f 281/2/3 280/2/3 279/2/3
f 282/2/3 280/2/3 281/2/3
f 285/3/3 284/3/3 283/3/3
f 286/3/3 284/3/3 285/3/3
f 289/2/3 288/2/3 287/2/3
f 290/2/3 288/2/3 289/2/3
f 293/2/3 292/2/3 291/2/3
f 294/2/3 292/2/3 293/2/3
f 297/2/3 296/2/3 295/2/3
f 298/2/3 296/2/3 297/2/3
f 301/2/3 300/2/3 299/2/3
f 302/2/3 300/2/3 301/2/3
f 305/3/3 304/3/3 303/3/3
f 306/3/3 304/3/3 305/3/3
f 309/2/3 308/2/3 307/2/3
f 310/2/3 308/2/3 309/2/3
f 313/2/3 312/2/3 311/2/3
f 314/2/3 312/2/3 313/2/3
f 317/2/3 316/2/3 315/2/3
f 318/2/3 316/2/3 317/2/3
f 321/2/3 320/2/3 319/2/3
f 322/2/3 320/2/3 321/2/3
f 325/3/3 324/3/3 323/3/3
f 326/3/3 324/3/3 325/3/3
f 327/3/3 324/3/3 326/3/3
f 328/3/3 324/3/3 327/3/3
f 331/2/3 330/2/3 329/2/3
f 332/2/3 330/2/3 331/2/3
f 335/3/3 334/3/3 333/3/3
f 336/3/3 334/3/3 335/3/3
f 339/2/3 338/2/3 337/2/3
f 340/2/3 338/2/3 339/2/3
f 343/3/3 342/3/3 341/3/3
f 344/3/3 342/3/3 343/3/3
f 347/3/3 346/3/3 345/3/3
f 348/3/3 346/3/3 347/3/3
f 351/3/3 350/3/3 349/3/3
f 352/3/3 350/3/3 351/3/3
f 355/3/3 354/3/3 353/3/3
f 356/3/3 354/3/3 355/3/3
f 359/3/3 358/3/3 357/3/3
f 360/3/3 358/3/3 359/3/3
f 363/3/3 362/3/3 361/3/3
f 364/3/3 362/3/3 363/3/3
f 367/1/3 366/1/3 365/1/3
f 368/1/3 366/1/3 367/1/3
f 369/1/3 367/1/3 365/1/3
f 370/1/3 367/1/3 369/1/3
f 371/1/3 366/1/3 368/1/3
f 372/1/3 366/1/3 371/1/3
f 373/1/4 374/1/4 375/1/4
f 375/1/4 374/1/4 376/1/4
f 373/1/4 375/1/4 377/1/4
f 377/1/4 375/1/4 378/1/4
f 376/1/4 374/1/4 379/1/4
f 379/1/4 374/1/4 380/1/4
f 381/3/4 382/3/4 383/3/4
f 383/3/4 382/3/4 384/3/4
f 385/3/4 386/3/4 387/3/4
f 387/3/4 386/3/4 388/3/4
f 389/3/4 390/3/4 391/3/4
f 391/3/4 390/3/4 392/3/4
f 393/3/4 394/3/4 395/3/4
f 395/3/4 394/3/4 396/3/4
f 397/3/4 398/3/4 399/3/4
f 399/3/4 398/3/4 400/3/4
f 401/3/4 402/3/4 403/3/4
f 403/3/4 402/3/4 404/3/4
f 405/2/4 406/2/4 407/2/4
f 407/2/4 406/2/4 408/2/4
f 409/2/4 410/2/4 411/2/4
f 411/2/4 410/2/4 412/2/4
f 413/3/4 414/3/4 415/3/4
f 415/3/4 414/3/4 416/3/4
f 417/2/4 418/2/4 419/2/4
f 419/2/4 418/2/4 420/2/4
f 421/3/4 422/3/4 423/3/4
f 423/3/4 422/3/4 424/3/4
f 424/3/4 422/3/4 425/3/4
f 425/3/4 422/3/4 426/3/4
f 427/2/4 428/2/4 429/2/4
f 429/2/4 428/2/4 430/2/4
f 431/2/4 432/2/4 433/2/4
f 433/2/4 432/2/4 434/2/4
f 435/2/4 436/2/4 437/2/4
f 437/2/4 436/2/4 438/2/4
f 439/2/4 440/2/4 441/2/4
f 441/2/4 440/2/4 442/2/4
f 443/2/4 444/2/4 445/2/4
f 445/2/4 444/2/4 446/2/4
f 447/2/4 448/2/4 449/2/4
f 449/2/4 448/2/4 450/2/4
f 451/3/4 452/3/4 453/3/4
f 453/3/4 452/3/4 454/3/4
f 455/2/4 456/2/4 457/2/4
f 457/2/4 456/2/4 458/2/4
f 459/2/4 460/2/4 461/2/4
f 461/2/4 460/2/4 462/2/4
f 463/3/4 464/3/4 465/3/4
f 465/3/4 464/3/4 466/3/4
f 467/3/4 468/3/4 469/3/4
f 469/3/4 468/3/4 470/3/4
f 471/3/4 472/3/4 473/3/4
f 473/3/4 472/3/4 474/3/4
f 475/3/4 476/3/4 477/3/4
f 477/3/4 476/3/4 478/3/4
f 479/3/4 480/3/4 481/3/4
f 481/3/4 480/3/4 482/3/4
f 483/3/4 484/3/4 485/3/4
f 485/3/4 484/3/4 486/3/4
f 487/1/4 488/1/4 489/1/4
f 489/1/4 488/1/4 490/1/4
f 493/1/5 492/1/5 491/1/5
f 494/1/5 492/1/5 493/1/5
f 495/1/5 493/1/5 491/1/5
f 496/1/5 493/1/5 495/1/5
f 497/4/5 496/4/5 495/4/5
f 498/4/5 496/4/5 497/4/5
f 499/1/5 498/1/5 497/1/5
f 500/1/5 498/1/5 499/1/5
f 501/4/5 500/4/5 499/4/5
f 502/4/5 500/4/5 501/4/5
f 503/1/5 502/1/5 501/1/5
f 505/1/5 503/1/5 501/1/5
f 505/1/5 504/1/5 503/1/5
f 506/1/5 504/1/5 505/1/5
f 509/3/5 508/3/5 507/3/5
f 511/3/5 509/3/5 507/3/5
f 511/3/5 510/3/5 509/3/5
f 512/3/5 510/3/5 511/3/5
f 513/3/5 510/3/5 512/3/5
f 515/3/5 513/3/5 512/3/5
f 515/3/5 514/3/5 513/3/5
f 516/3/5 514/3/5 515/3/5
f 517/3/5 514/3/5 516/3/5
f 519/3/5 517/3/5 516/3/5
f 519/3/5 518/3/5 517/3/5
f 520/3/5 518/3/5 519/3/5
f 521/3/5 518/3/5 520/3/5
f 523/3/5 521/3/5 520/3/5
f 523/3/5 522/3/5 521/3/5
f 524/3/5 522/3/5 523/3/5
f 525/3/5 522/3/5 524/3/5
f 527/3/5 525/3/5 524/3/5
f 527/3/5 526/3/5 525/3/5
f 528/3/5 526/3/5 527/3/5
f 529/3/5 526/3/5 528/3/5
f 531/3/5 529/3/5 528/3/5
f 531/3/5 530/3/5 529/3/5
f 532/3/5 530/3/5 531/3/5
f 533/3/5 530/3/5 532/3/5
f 535/3/5 533/3/5 532/3/5
f 535/3/5 534/3/5 533/3/5
f 536/3/5 534/3/5 535/3/5
f 538/3/5 534/3/5 536/3/5
f 539/3/5 534/3/5 538/3/5
f 539/3/5 538/3/5 537/3/5
f 540/3/5 534/3/5 539/3/5
f 542/3/5 539/3/5 537/3/5
f 543/3/5 539/3/5 542/3/5
f 543/3/5 542/3/5 541/3/5
f 544/3/5 539/3/5 543/3/5
f 546/3/5 543/3/5 541/3/5
f 547/3/5 543/3/5 546/3/5
f 547/3/5 546/3/5 545/3/5
f 548/3/5 543/3/5 547/3/5
f 550/3/5 547/3/5 545/3/5
f 551/3/5 547/3/5 550/3/5
f 551/3/5 550/3/5 549/3/5
f 552/3/5 547/3/5 551/3/5
f 554/3/5 551/3/5 549/3/5
f 555/3/5 551/3/5 554/3/5
f 555/3/5 554/3/5 553/3/5
f 556/3/5 551/3/5 555/3/5
f 558/3/5 555/3/5 553/3/5
f 559/3/5 555/3/5 558/3/5
f 559/3/5 558/3/5 557/3/5
f 560/3/5 555/3/5 559/3/5
f 562/3/5 559/3/5 557/3/5
f 563/3/5 559/3/5 562/3/5
f 563/3/5 562/3/5 561/3/5
f 564/3/5 559/3/5 563/3/5
f 565/3/5 563/3/5 561/3/5
f 566/3/5 563/3/5 565/3/5
f 570/2/5 568/2/5 567/2/5
f 571/2/5 568/2/5 570/2/5
f 576/2/5 570/2/5 569/2/5
f 576/2/5 571/2/5 570/2/5
f 576/2/5 572/2/5 571/2/5
f 578/2/5 574/2/5 573/2/5
f 579/2/5 574/2/5 578/2/5
f 580/2/5 574/2/5 579/2/5
f 582/2/5 576/2/5 575/2/5
f 583/2/5 572/2/5 576/2/5
f 583/2/5 576/2/5 582/2/5
f 584/2/5 572/2/5 583/2/5
f 586/2/5 578/2/5 577/2/5
f 586/2/5 579/2/5 578/2/5
f 588/2/5 582/2/5 581/2/5
f 588/2/5 583/2/5 582/2/5
f 589/2/5 583/2/5 588/2/5
f 592/2/5 586/2/5 585/2/5
f 593/2/5 579/2/5 586/2/5
f 593/2/5 586/2/5 592/2/5
f 594/2/5 588/2/5 587/2/5
f 594/2/5 589/2/5 588/2/5
f 595/2/5 589/2/5 594/2/5
f 596/3/5 590/3/5 589/3/5
f 596/2/5 589/2/5 595/2/5
f 597/3/5 590/3/5 596/3/5
f 598/3/5 592/3/5 591/3/5
f 598/3/5 593/3/5 592/3/5
f 599/3/5 593/3/5 598/3/5
f 600/3/5 593/3/5 599/3/5
f 601/2/5 596/2/5 595/2/5
f 602/2/5 596/2/5 601/2/5
f 603/2/5 596/2/5 602/2/5
f 605/2/5 600/2/5 599/2/5
f 606/2/5 600/2/5 605/2/5
f 607/2/5 604/2/5 603/2/5
f 607/2/5 603/2/5 602/2/5
f 608/2/5 604/2/5 607/2/5
f 609/2/5 600/2/5 606/2/5
f 610/2/5 600/2/5 609/2/5
f 611/2/5 600/2/5 610/2/5
f 613/2/5 604/2/5 608/2/5
f 614/2/5 604/2/5 613/2/5
f 615/2/5 604/2/5 614/2/5
f 616/2/5 604/2/5 615/2/5
f 617/2/5 611/2/5 610/2/5
f 617/2/5 612/2/5 611/2/5
f 618/2/5 612/2/5 617/2/5
f 619/2/5 615/2/5 614/2/5
f 620/2/5 615/2/5 619/2/5
f 621/3/6 622/3/6 623/3/6
f 621/3/6 623/3/6 625/3/6
f 623/3/6 624/3/6 625/3/6
f 625/3/6 624/3/6 626/3/6
f 626/3/6 624/3/6 627/3/6
f 626/3/6 627/3/6 629/3/6
f 627/3/6 628/3/6 629/3/6
f 629/3/6 628/3/6 630/3/6
f 630/3/6 628/3/6 631/3/6
f 630/3/6 631/3/6 633/3/6
f 631/3/6 632/3/6 633/3/6
f 633/3/6 632/3/6 634/3/6
f 634/3/6 632/3/6 635/3/6
f 634/3/6 635/3/6 637/3/6
f 635/3/6 636/3/6 637/3/6
f 637/3/6 636/3/6 638/3/6
f 638/3/6 636/3/6 639/3/6
f 638/3/6 639/3/6 641/3/6
f 639/3/6 640/3/6 641/3/6
f 641/3/6 640/3/6 642/3/6
f 642/3/6 640/3/6 643/3/6
f 642/3/6 643/3/6 645/3/6
f 643/3/6 644/3/6 645/3/6
f 645/3/6 644/3/6 646/3/6
f 646/3/6 644/3/6 647/3/6
f 646/3/6 647/3/6 649/3/6
f 647/3/6 648/3/6 649/3/6
f 649/3/6 648/3/6 650/3/6
f 650/3/6 648/3/6 652/3/6
f 652/3/6 648/3/6 653/3/6
f 651/3/6 652/3/6 653/3/6
f 653/3/6 648/3/6 654/3/6
f 651/3/6 653/3/6 656/3/6
f 656/3/6 653/3/6 657/3/6
f 655/3/6 656/3/6 657/3/6
f 657/3/6 653/3/6 658/3/6
f 655/3/6 657/3/6 660/3/6
f 660/3/6 657/3/6 661/3/6
f 659/3/6 660/3/6 661/3/6
f 661/3/6 657/3/6 662/3/6
f 659/3/6 661/3/6 664/3/6
f 664/3/6 661/3/6 665/3/6
f 663/3/6 664/3/6 665/3/6
f 665/3/6 661/3/6 666/3/6
f 663/3/6 665/3/6 668/3/6
f 668/3/6 665/3/6 669/3/6
f 667/3/6 668/3/6 669/3/6
f 669/3/6 665/3/6 670/3/6
f 667/3/6 669/3/6 672/3/6
f 672/3/6 669/3/6 673/3/6
f 671/3/6 672/3/6 673/3/6
f 673/3/6 669/3/6 674/3/6
f 671/3/6 673/3/6 676/3/6
f 676/3/6 673/3/6 677/3/6
f 675/3/6 676/3/6 677/3/6
f 677/3/6 673/3/6 678/3/6
f 675/3/6 677/3/6 679/3/6
f 679/3/6 677/3/6 680/3/6
f 681/1/6 682/1/6 683/1/6
f 683/1/6 682/1/6 684/1/6
f 681/1/6 683/1/6 685/1/6
f 685/1/6 683/1/6 686/1/6
f 685/4/6 686/4/6 687/4/6
f 687/4/6 686/4/6 688/4/6
f 689/1/6 690/1/6 691/1/6
f 691/1/6 690/1/6 692/1/6
f 691/4/6 692/4/6 693/4/6
f 693/4/6 692/4/6 694/4/6
f 693/1/6 694/1/6 695/1/6
f 693/1/6 695/1/6 697/1/6
f 695/1/6 696/1/6 697/1/6
f 697/1/6 696/1/6 698/1/6
f 699/2/6 700/2/6 702/2/6
f 702/2/6 700/2/6 703/2/6
f 701/2/6 702/2/6 708/2/6
f 702/2/6 703/2/6 708/2/6
f 703/2/6 704/2/6 708/2/6
f 705/2/6 706/2/6 710/2/6
f 710/2/6 706/2/6 711/2/6
f 711/2/6 706/2/6 712/2/6
f 707/2/6 708/2/6 714/2/6
f 708/2/6 704/2/6 715/2/6
f 714/2/6 708/2/6 715/2/6
f 715/2/6 704/2/6 716/2/6
f 709/2/6 710/2/6 718/2/6
f 710/2/6 711/2/6 718/2/6
f 713/2/6 714/2/6 720/2/6
f 714/2/6 715/2/6 720/2/6
f 720/2/6 715/2/6 721/2/6
f 717/2/6 718/2/6 722/2/6
f 718/2/6 711/2/6 723/2/6
f 722/2/6 718/2/6 723/2/6
f 720/2/6 721/2/6 724/2/6
f 719/2/6 720/2/6 724/2/6
f 724/2/6 721/2/6 725/2/6
f 721/3/6 722/3/6 726/3/6
f 725/2/6 721/2/6 726/2/6
f 722/3/6 723/3/6 726/3/6
f 726/3/6 723/3/6 727/3/6
f 727/3/6 723/3/6 728/3/6
f 725/2/6 726/2/6 729/2/6
f 729/2/6 726/2/6 730/2/6
f 730/2/6 726/2/6 731/2/6
f 727/2/6 728/2/6 733/2/6
f 733/2/6 728/2/6 734/2/6
f 731/2/6 732/2/6 735/2/6
f 730/2/6 731/2/6 735/2/6
f 735/2/6 732/2/6 736/2/6
f 734/2/6 728/2/6 737/2/6
f 737/2/6 728/2/6 738/2/6
f 738/2/6 728/2/6 739/2/6
f 736/2/6 732/2/6 741/2/6
f 741/2/6 732/2/6 742/2/6
f 742/2/6 732/2/6 743/2/6
f 743/2/6 732/2/6 744/2/6
f 738/2/6 739/2/6 745/2/6
f 739/2/6 740/2/6 745/2/6
f 745/2/6 740/2/6 746/2/6
f 742/2/6 743/2/6 747/2/6
f 747/2/6 743/2/6 748/2/6
